<mxfile host="app.diagrams.net" modified="2023-06-06T15:37:09.020Z" agent="Mozilla/5.0 (Windows NT 10.0; Win64; x64; rv:109.0) Gecko/20100101 Firefox/113.0" etag="p75H8iekeuAIJT8BOYff" version="21.3.7" type="device">
  <diagram name="Página-1" id="BaH_n8rFGuGoW6WkxlLW">
    <mxGraphModel dx="1279" dy="467" grid="0" gridSize="10" guides="1" tooltips="1" connect="1" arrows="1" fold="1" page="0" pageScale="1" pageWidth="827" pageHeight="1169" math="0" shadow="0">
      <root>
        <mxCell id="0" />
        <mxCell id="1" parent="0" />
        <mxCell id="UTTsqRXFpR4VPd-PbOTj-33" value="" style="rounded=1;whiteSpace=wrap;html=1;" parent="1" vertex="1">
          <mxGeometry x="230" y="509" width="530" height="352.37" as="geometry" />
        </mxCell>
        <mxCell id="UTTsqRXFpR4VPd-PbOTj-10" value="" style="rounded=1;whiteSpace=wrap;html=1;fillColor=#D5E8D4;strokeColor=#82b366;" parent="1" vertex="1">
          <mxGeometry x="573.03" y="148" width="210" height="240" as="geometry" />
        </mxCell>
        <mxCell id="UTTsqRXFpR4VPd-PbOTj-9" value="" style="rounded=1;whiteSpace=wrap;html=1;fillColor=#ffe6cc;strokeColor=#d79b00;" parent="1" vertex="1">
          <mxGeometry x="261.94" y="148" width="210" height="240" as="geometry" />
        </mxCell>
        <mxCell id="UTTsqRXFpR4VPd-PbOTj-8" value="" style="rounded=1;whiteSpace=wrap;html=1;fillColor=#dae8fc;strokeColor=#6c8ebf;" parent="1" vertex="1">
          <mxGeometry x="-50" y="148" width="210" height="240" as="geometry" />
        </mxCell>
        <mxCell id="UTTsqRXFpR4VPd-PbOTj-2" value="" style="image;points=[];aspect=fixed;html=1;align=center;shadow=0;dashed=0;image=img/lib/allied_telesis/computer_and_terminals/Server_Desktop.svg;strokeWidth=6;" parent="1" vertex="1">
          <mxGeometry x="320" y="208.5" width="93.88" height="119" as="geometry" />
        </mxCell>
        <mxCell id="UTTsqRXFpR4VPd-PbOTj-3" value="&lt;font style=&quot;font-size: 22px;&quot;&gt;Cliente&lt;/font&gt;" style="verticalLabelPosition=bottom;sketch=0;aspect=fixed;html=1;verticalAlign=top;strokeColor=none;align=center;outlineConnect=0;shape=mxgraph.citrix.thin_client;" parent="1" vertex="1">
          <mxGeometry x="-1.8800000000000026" y="211.13" width="113.75" height="113.75" as="geometry" />
        </mxCell>
        <mxCell id="UTTsqRXFpR4VPd-PbOTj-6" value="" style="image;points=[];aspect=fixed;html=1;align=center;shadow=0;dashed=0;image=img/lib/allied_telesis/computer_and_terminals/Server_Desktop.svg;strokeWidth=6;" parent="1" vertex="1">
          <mxGeometry x="631.09" y="208.87" width="93.88" height="119" as="geometry" />
        </mxCell>
        <mxCell id="UTTsqRXFpR4VPd-PbOTj-11" value="Capa de presentación" style="text;html=1;strokeColor=none;fillColor=none;align=center;verticalAlign=middle;whiteSpace=wrap;rounded=0;fontSize=19;fontStyle=1" parent="1" vertex="1">
          <mxGeometry x="3.499999999999993" y="163" width="104.62" height="20" as="geometry" />
        </mxCell>
        <mxCell id="UTTsqRXFpR4VPd-PbOTj-12" value="Capa de negocio" style="text;html=1;strokeColor=none;fillColor=none;align=center;verticalAlign=middle;whiteSpace=wrap;rounded=0;fontSize=19;fontStyle=1" parent="1" vertex="1">
          <mxGeometry x="314.63" y="163" width="104.62" height="20" as="geometry" />
        </mxCell>
        <mxCell id="UTTsqRXFpR4VPd-PbOTj-14" value="Capa de datos" style="text;html=1;strokeColor=none;fillColor=none;align=center;verticalAlign=middle;whiteSpace=wrap;rounded=0;fontSize=19;fontStyle=1" parent="1" vertex="1">
          <mxGeometry x="625.72" y="162.99" width="104.62" height="20" as="geometry" />
        </mxCell>
        <mxCell id="UTTsqRXFpR4VPd-PbOTj-15" value="&lt;font style=&quot;font-size: 22px;&quot;&gt;Servidor&lt;/font&gt;" style="text;html=1;strokeColor=none;fillColor=none;align=center;verticalAlign=middle;whiteSpace=wrap;rounded=0;" parent="1" vertex="1">
          <mxGeometry x="337" y="328" width="60" height="30" as="geometry" />
        </mxCell>
        <mxCell id="UTTsqRXFpR4VPd-PbOTj-16" value="&lt;font style=&quot;font-size: 22px;&quot;&gt;Servidor de datos&lt;br&gt;&lt;/font&gt;" style="text;html=1;strokeColor=none;fillColor=none;align=center;verticalAlign=middle;whiteSpace=wrap;rounded=0;" parent="1" vertex="1">
          <mxGeometry x="624.5600000000001" y="339.99" width="106.94" height="30" as="geometry" />
        </mxCell>
        <mxCell id="UTTsqRXFpR4VPd-PbOTj-17" value="" style="endArrow=none;html=1;rounded=0;strokeWidth=2;" parent="1" source="UTTsqRXFpR4VPd-PbOTj-3" target="UTTsqRXFpR4VPd-PbOTj-2" edge="1">
          <mxGeometry width="50" height="50" relative="1" as="geometry">
            <mxPoint x="-150" y="340" as="sourcePoint" />
            <mxPoint x="-100" y="290" as="targetPoint" />
          </mxGeometry>
        </mxCell>
        <mxCell id="UTTsqRXFpR4VPd-PbOTj-19" value="" style="endArrow=none;html=1;rounded=0;strokeWidth=2;" parent="1" source="UTTsqRXFpR4VPd-PbOTj-2" target="UTTsqRXFpR4VPd-PbOTj-6" edge="1">
          <mxGeometry width="50" height="50" relative="1" as="geometry">
            <mxPoint x="420" y="480" as="sourcePoint" />
            <mxPoint x="470" y="430" as="targetPoint" />
          </mxGeometry>
        </mxCell>
        <mxCell id="UTTsqRXFpR4VPd-PbOTj-20" value="" style="rounded=1;whiteSpace=wrap;html=1;fillColor=#D5E8D4;strokeColor=#82b366;" parent="1" vertex="1">
          <mxGeometry x="530" y="609.75" width="210" height="199.5" as="geometry" />
        </mxCell>
        <mxCell id="UTTsqRXFpR4VPd-PbOTj-21" value="" style="rounded=1;whiteSpace=wrap;html=1;fillColor=#ffe6cc;strokeColor=#d79b00;" parent="1" vertex="1">
          <mxGeometry x="250.50000000000006" y="589.51" width="210" height="240" as="geometry" />
        </mxCell>
        <mxCell id="UTTsqRXFpR4VPd-PbOTj-22" value="" style="rounded=1;whiteSpace=wrap;html=1;fillColor=#dae8fc;strokeColor=#6c8ebf;" parent="1" vertex="1">
          <mxGeometry x="-60" y="589.51" width="210" height="240" as="geometry" />
        </mxCell>
        <mxCell id="UTTsqRXFpR4VPd-PbOTj-24" value="&lt;div&gt;&lt;font style=&quot;font-size: 22px;&quot;&gt;Cliente&lt;/font&gt;&lt;/div&gt;&lt;div&gt;&lt;font style=&quot;font-size: 22px;&quot;&gt;(Flask)&lt;br&gt;&lt;/font&gt;&lt;/div&gt;" style="verticalLabelPosition=bottom;sketch=0;aspect=fixed;html=1;verticalAlign=top;strokeColor=none;align=center;outlineConnect=0;shape=mxgraph.citrix.thin_client;" parent="1" vertex="1">
          <mxGeometry x="-11.879999999999994" y="652.64" width="113.75" height="113.75" as="geometry" />
        </mxCell>
        <mxCell id="UTTsqRXFpR4VPd-PbOTj-26" value="Capa de presentación" style="text;html=1;strokeColor=none;fillColor=none;align=center;verticalAlign=middle;whiteSpace=wrap;rounded=0;fontSize=19;fontStyle=1" parent="1" vertex="1">
          <mxGeometry x="-6.499999999999998" y="604.51" width="104.62" height="20" as="geometry" />
        </mxCell>
        <mxCell id="UTTsqRXFpR4VPd-PbOTj-27" value="Capa de negocio" style="text;html=1;strokeColor=none;fillColor=none;align=center;verticalAlign=middle;whiteSpace=wrap;rounded=0;fontSize=19;fontStyle=1" parent="1" vertex="1">
          <mxGeometry x="303.19000000000005" y="604.51" width="104.62" height="20" as="geometry" />
        </mxCell>
        <mxCell id="UTTsqRXFpR4VPd-PbOTj-28" value="Capa de datos" style="text;html=1;strokeColor=none;fillColor=none;align=center;verticalAlign=middle;whiteSpace=wrap;rounded=0;fontSize=19;fontStyle=1" parent="1" vertex="1">
          <mxGeometry x="582.69" y="624.74" width="104.62" height="20" as="geometry" />
        </mxCell>
        <mxCell id="UTTsqRXFpR4VPd-PbOTj-29" value="&lt;font style=&quot;font-size: 22px;&quot;&gt;Lógica codificada en Python&lt;br&gt;&lt;/font&gt;" style="text;html=1;strokeColor=none;fillColor=none;align=center;verticalAlign=middle;whiteSpace=wrap;rounded=0;" parent="1" vertex="1">
          <mxGeometry x="255.50000000000006" y="781.51" width="200" height="30" as="geometry" />
        </mxCell>
        <mxCell id="UTTsqRXFpR4VPd-PbOTj-31" value="" style="endArrow=none;html=1;rounded=0;strokeWidth=2;" parent="1" source="UTTsqRXFpR4VPd-PbOTj-24" target="UTTsqRXFpR4VPd-PbOTj-40" edge="1">
          <mxGeometry width="50" height="50" relative="1" as="geometry">
            <mxPoint x="-202.53" y="781.5" as="sourcePoint" />
            <mxPoint x="320.06999999999994" y="709.4923263343962" as="targetPoint" />
          </mxGeometry>
        </mxCell>
        <mxCell id="UTTsqRXFpR4VPd-PbOTj-32" value="" style="endArrow=none;html=1;rounded=0;strokeWidth=2;" parent="1" source="UTTsqRXFpR4VPd-PbOTj-40" target="UTTsqRXFpR4VPd-PbOTj-20" edge="1">
          <mxGeometry width="50" height="50" relative="1" as="geometry">
            <mxPoint x="413.95000000000005" y="708.9980688" as="sourcePoint" />
            <mxPoint x="570.0699999999999" y="707.3619312000001" as="targetPoint" />
          </mxGeometry>
        </mxCell>
        <mxCell id="UTTsqRXFpR4VPd-PbOTj-34" value="" style="image;points=[];aspect=fixed;html=1;align=center;shadow=0;dashed=0;image=img/lib/allied_telesis/computer_and_terminals/Server_Desktop.svg;strokeWidth=6;" parent="1" vertex="1">
          <mxGeometry x="443.56" y="430" width="93.88" height="119" as="geometry" />
        </mxCell>
        <mxCell id="UTTsqRXFpR4VPd-PbOTj-35" value="&lt;font style=&quot;font-size: 22px;&quot;&gt;Servidor&lt;/font&gt;" style="text;html=1;strokeColor=none;fillColor=none;align=center;verticalAlign=middle;whiteSpace=wrap;rounded=0;" parent="1" vertex="1">
          <mxGeometry x="460.5000000000001" y="549" width="60" height="30" as="geometry" />
        </mxCell>
        <mxCell id="UTTsqRXFpR4VPd-PbOTj-37" value="&lt;div style=&quot;font-size: 11px;&quot;&gt;&lt;font style=&quot;font-size: 11px;&quot;&gt;La lógica será implementada&lt;/font&gt;&lt;/div&gt;&lt;div style=&quot;font-size: 11px;&quot;&gt;&lt;font style=&quot;font-size: 11px;&quot;&gt;por el código&lt;/font&gt;&lt;/div&gt;&lt;div style=&quot;font-size: 11px;&quot;&gt;&lt;font style=&quot;font-size: 11px;&quot;&gt;ejecutado en las distintas&lt;/font&gt;&lt;/div&gt;&lt;div style=&quot;font-size: 11px;&quot;&gt;&lt;font style=&quot;font-size: 11px;&quot;&gt;rutas definidas&lt;br&gt;&lt;/font&gt;&lt;/div&gt;" style="ellipse;shape=cloud;whiteSpace=wrap;html=1;shadow=1;" parent="1" vertex="1">
          <mxGeometry x="130" y="820" width="202.77" height="159.5" as="geometry" />
        </mxCell>
        <mxCell id="UTTsqRXFpR4VPd-PbOTj-39" value="" style="endArrow=none;dashed=1;html=1;rounded=0;exitX=0.625;exitY=0.2;exitDx=0;exitDy=0;exitPerimeter=0;" parent="1" source="UTTsqRXFpR4VPd-PbOTj-37" target="UTTsqRXFpR4VPd-PbOTj-21" edge="1">
          <mxGeometry width="50" height="50" relative="1" as="geometry">
            <mxPoint x="67.47" y="909" as="sourcePoint" />
            <mxPoint x="117.47" y="859" as="targetPoint" />
          </mxGeometry>
        </mxCell>
        <mxCell id="UTTsqRXFpR4VPd-PbOTj-40" value="" style="shape=image;verticalLabelPosition=bottom;labelBackgroundColor=default;verticalAlign=top;aspect=fixed;imageAspect=0;image=data:image/png,iVBORw0KGgoAAAANSUhEUgAAAQ0AAAFGCAYAAABwjcqnAAAACXBIWXMAACO/AAAjvwGm+t7LAAAAGXRFWHRTb2Z0d2FyZQB3d3cuaW5rc2NhcGUub3Jnm+48GgAAIABJREFUeJztvXmcHEd5N/59enpmL2ktZFkgXzHEBLwyBCxCwNhgxweXbU4ZYo7wIcE2JCQB2wmQD8jiCL6weSEvBMj7I+EIxCLJCwEDxkayLckmr22OWOKwOXxpZcsW1nq1u7Mz3c/vj5nuqa6uqj6mZ6Znt76fjzTVVdVPfbv2eb5dXdUHMTMshh/nXnPr2GPN2SPJ53XEfBgxr/LhPIHAT2DgCWB+AhirQPQEgF1mngRQAZgAWgUAYL/KoBVtkz7AByC4B4MPAlgEgwl4jIEZgGeYMcPgGQfODBMfIPiP+Uz7CLzXB+8BVu3duumUhX73iUVvQFY0hgNnXH7DIS7T77HjP51ATwH4SPg43AeOIvDhAA4FgFaQcycJANLfmDlSGmZKtcIqrMhrbckVWNFcWGc/gGlmnibCNIAHwHwP+XyPX/V+sXXTxr0JXWBREljRKBlO/+iNh45UcAIYz4Dj/x6DnsY+ng7gSa0aLP1EohhxwYhstTd7JxhR85m4zoLpbpB/Dxj3AHQ3+fRD1FbdtXXTKU1YlAZWNAaIc6+5dWyuMfc8OHQiAycw8wYwfqdV2nUQphMMsCJLsiMJRtiyYkTRA67zIPoRgJsd+N95/OH9O27/zPkNWAwMVjT6iHO3bKnM/Wb1iUx0GnycCsIfAhjJFITtZDwIW4miBENgkF8wesN1BoxvEehLzsih19tRSP9hRaPHOHXzttEVE/4ZTPRKZpwD8JpyBCFSXJbIgtFuJS9XgVsRXJnxkEP0zw3iT+788MYH4ztZ9AJWNHqEs67adjyIzwfjTQBWRQbj8txApiCM55mCsGUrp2AMD9dFML7q+HzZTZe/7qdxAxZFwopGgSCAzrrqprOY8B7AP7FfQRjJ7eVKSfm5NsH4PLN/6fbLX78HFj2BFY2CcNbVW88BnE1gPiF1EEYqyEEoFLK0T5iXEISKvD4srZaB60EAmw//pXP1tddu9GBRKKxodImzr/n+EczOJ8F4VSsnfxACijN36iCMtdhTweg/106dDFx/7Pj01puveN2dsimL/HAGTWCYcfY12/6CfefnHcFAYhAqKnRKehmEUAXhMHE1C4aG6+/7Du886W+/emH8CCzywo40cuDca24dW+D6Z33GGyMF5V+ujLYbibOycIViMrQIrv4X6+OTF96+6ay5WIMWmWBFIyPOumz7E6jmfRfMf2Ae6suO3XbtvEEYFi+/pdXiuNJtzcriWT/4+zc/Gm/YIi3s5UkGvOyTP5ikmvedVIIhId/qg1zdvFyZOwh7zVXVjupc1XOu/LxKs3rLye/54tGK1i1SwopGSpy7ZUul0lz4TzA/1+zYiG0UuVypbCBiK5qZi6uina64Fra0WgjX4zy/svWF7/rSOljkghWNlFh4YO0H4fMfJTs2Z3TsWBF0QdgpVp3D8wShhqvEozuuqt0GzvUpTbdy/Ynv3rJaUdsiAXZOIwXOvmrbKSC6kcGCyOZ3bEBxNmRpnzBPFYQsVUkKwk6d0nFF9gfmCuR68+LMwdPtA3DZYEcaCdi8GQ4c+lhUMJAoGOqxdTur10GoabAQrqpWVMkeCUbBXF9YnVxxWdyShQlWNBJw++RNf8LMJ0Rz484vOzbHqsnD514EoSqrYK6s45pnabXPXGU7rR3f9fyLv/hqRSULDaxoGEAAsY+Lo7kdR2ZpW6iR1bEPAJBeh5dvubIPXOPt9oprvEZGrmoDElcC6NN/+L4vHBonaaGCFQ0DXn71TacAPNXJSePY6uG04Ng+wDeA+M89B7+3UK+Ofec9Z676znvOHGtyZQ2RczITrmTgN53dVZEuN7wEl1YjzefhKo+IFELVwlpn0blSwdRCATsRasDZH9v6BQa9qbUlO3Y0r7UlV5Ad27+B2Pmb695z+g+T2j518za3Wlv4U/JxKSh41V9gSw7MXqw+pA9CYagv0+oTV6GQpX3ScgXYYZy082Nv3AkLI6xoaHDuli2VufsO2wtgTQGO7RHz3133njMuz8rjJZu/u5qr/DUApyqH+qUJwliLPeUaNV8QV8INt131pjNgYYS9PNFg7v5D/xDAGgBdOTaAhu/QK/MIBgB8Z9OL9x/SePwlDHy1iIfQErgqjSybB+YYp//hu790crw1CxFWNHTwnZbzdLkESMBfffeS077ZDZVrN21cdFfyW0D4gdjugJcrhUQKwdBwjViUuEqmw42ecnX4ElgYYUVDB8KGeHRldWz+6nV/e/qni6Bz3TtfWvfYew2A2Y79eLv5uUqFrAvCPCsl+oxQ5lhRIy9XoSArV/L5pc+xt5gbYUVDCz4hemLO7NiLfoXfVySjG//urAeJ+WMDWa5sF+iCUDIWyZPHA8lc1SOkPj3c51Yc/83xQosAVjQUeM5n76iCcQyQ37EZ/r989+Izf100t9Fa82MMPB5pVxWEkbjKE4TyKEMhVOKW8kSf8yG0gXOl1yhqWLRhRUOBJ809dhSAitGxES8UHZsJW3rB7et/c87jAH0nbDdNECJeWOoH5gbNlf0TTnz3/7EPs2lgRUMBalaOTnRsyWmjvkmPHzJ/4Kae8SP+r0xBqAowSHnhT1IQKvZO9cDcUHGteH7lNAUBC1jRUMIHr22lcjv23ddu2rjYK34e+buSglA9BGlnyfwzBSFLVeKjg3gQyuf3IeBK9Nw4GwvAioYSRFjVlWODp3tGDoDfcKRvesS5SjETbvR9aVV1yVEKrqqsyD7HxXawAGBFQwlmHNKVY/s42EN6qE24jwsMNMPwWE4fHkJTZES0tkxc9WLGAAhsRUMDKxpK8HhkK/wvkqN3bMLaHpJDc8F7kjzg7zSvHiH1abkyakgWjF5zVbWj1Jg0XOloIpBi72UPKxoqMNxOMo9j+4f3lB/xERKddjIPV3l8rzgDi1u5glDDVdFOV1wLe2AOALP7zIu/GDl5WLRgRUMBJlSBNI4dK2on6Klnf+T7RyhqFQJifpF86i3NcqUyCDVcJR7dcVXt1h3XkTlvpYLRsocVDRUYlS6XAGmx0nx5z/j5/jlpgjAKLdf0QVjqpVWWqsRFNCtXb8RboSC37GFFQwm/9aPw57RLgA77byMUf038Rx/61gaANkQa65JrcUEon99Z4pWBq6oVVTIt11hWMteqV7FzGgpY0dBB4exZHJtBzznjsu+8tmhaDvgyhGJUzuXKcFvilYkr67j28V2kFkpY0UhEBscWChgAMV116uZvrimKyekf+tYbwTg9wiRvEEpcVQZ1QZjqgTn5SiYzVxUG9S5SCxFWNIzI6NhtbxOqHz1Sdf/z3M1bat0yOeND33g2mD/TMa0e+pdjuVI2k4erPMoY1LtILWRY0dAin2PLNhg4aaa68htnXH7DIXmZnPmhb7yA2fkOgPHQatFcC12uFJPDzNVCBSsaBhS1XMnAi8lv7njxh74lTGAm4zmfvaN62oe+9dc+O98HWjeMDcty5VLhahGHm1zFQva4XMuVPq9nx/l/L/7wt78C9q/+7vtffoeutRdfdf2EP998xSr4HwDjaR07aRw7D1eWqihHTKZmkC8Iy8FVPQSx0MGKhgY9Wq4kJpwHovPO+PB194H4BjDdx8BeB/4o+ziCCccBdBrAY2kdu4zLlWXjGrEocZVMhxt1mbwFACsaSrAfpqL5hTh2mHU0mN4KAAQGs3hXR3rHLu1yZV6usp0MXLVDjA6DWB0jV3uXhhJ2TkOLXjm2PuhyOfagucZrZOSqNqDjqubVypMlPpmreoSknHOxCGFFQwm/k8zt2AqzS+5JULn5PFzlEZFCqKK0cnBVNZ+Bq0UEVjRM6Mqx42fHXI6taGc4lisNZ20N/9gR9PqBuTRcLWKwoqFDasdW7VagY0sNDe9yJUs/Obj2+4E5CyWsaBhglyuTuaqHIO0smX/Pucoy2AVXCy2saGhglyvVdWSukulwo+9cYx3WJVcG7KKrGlY0kiA4VDbHVmUV79hFLa1qhxgdBrE6XXEVCgrhGtHaXnG1AKxopMSQLFcmcFXzauXJ44FkruoR0nAurabpV4sAVjRMkB27k6ndbOXZ5cpScVW0k5qrRQxWNHRIceazy5VDwlXikZqrhRJWNFTwgbhjR6v02rFVrXV+koJQsXe/lyuXBFcLFaxoKNG6IzTqbxH3VJyu7HLlUHJVtWIFwwgrGhpkduxYVryO7NiS6XBj6JcrC+OqyiqYK+u4WuXQwYqGAtGHXJMdWzvECFOyY8dMI5NjCwVZg1DJNXJiLhNXvUAUx1UFu+BqghUNHeLep3Vs+Rwbc+yYafVwekkuV8pcVe0oNaZfXOVRhpWLJNj3aSjgoXoZOQufTqyYcMMgCf9H8zUvaiCFUcM7HRaMBaod078ggtD8pA9+WTS3gCAcphUoe0OoElY0FLjhvac9CuDRQfMYJE5631dnwRQLsGF6YI5VCsPSPim5WnRgL08s9DBGUJ4gZKlKfHSgvrzRC0a8QvFcLaKwomGhhh/PGtQDcybB0MV3UVwt4rCiYZGApHkMdeRlEwxVlmKOIlEwMnCV7Si4WqhhRcPCgDQTn/F9sgrGQB7uYzNXCz2saFgYkXWlJDaJadgMGjBPfMYmNTCwB+YsAFjRsDBg2SytpnlgziJEKZdcz92ypTLzwGFPdhveUT45Rznwj/EJ42AaB/NIq5bhT+vHEu2kL+fGd0s8xfihAVbkqdGq6RtM+xqu0TzZYtKZ3Fen5KYiidDIc2IkUwdhGq5D9HCfDnsvuQTEx6arnBfEIP8xAAfBzl6w9wtU3J/jsCv29rZdPUohGi++6vq1VdTOZPDzwTgBdOgzK+yPMxEI3HnoNPxjyo4gJHTOQozWZ4nE6ixVSXLsWDOtlPCho7yOTZEiBVeKcs2/XEmRPajTXLRm2n5VBmFRXI0V+sTVBD4HwEkZdsgB8W/GADmA7wMPXfwQwDcCuBEV/9tYc810b3l0MDDReMU12471PbyRwS+vonoCg1uXSlQWZxns05WZucayho9rxKLEVTIdbvT6gbkS44kAnQfgPHiVJh66+NsA/xOeeP+3gGu9XjbcV9E4dfO20fEVeCMR3gLGiSCmmCOUxFkG+XRl6bnKdjJw1Q4xOgxidQbGdWjALoCzwTgbe4/8GXDRB/Ckq7/Wq4Pqi2ic+6ltK+bn8acTK3AJgCPCP1rkZFciZ+nL05V95BqvkZGr2oCOq5pXK0+W+GSuccHrC9ehgHjsYfrpgH8t9v7VbeB3vRXrrvlp0a32dPXk3C1bKudcc9M75ufxGwY+DuCIVklZnEVBugyOrWqnG66R5vNwZam6QqiitHJwVTU/IK5DAaVgCPn0PBDfib1/fRFAhX7Kumei8fKP3fzC+QfW3sk+/28GDu2UpHQWxAuLd5b4GSeXYxfNdaktV3azUtJvrkOBoPNYOCbu5AdpxiiYr8L0X27B9AXjRbVe+OXJcz57R3Xd7ON/5xC9Hz47uZ1FcoThfbqy3FyVJMOfHFxzr0CVgGvpIR4jq/Mj/RKKyGuAkaPx8F+fjbUff6hbFoWONM752Lanr3t89r8B2gSWBQMDdBaWqsTPYkuZq6JCp0Tm33Ousgx2wVXVSm6uZYfQL+bRRbuco/sBfwDP+x4e/Ath1J8PhYnGWR/fdjoT3QrCswbnLFIyrWPHsoaPa8SixFUyHW4s3RWopSQYggCoxUAo1+R3BOUZIFyPX11wSDeMChGNs6/ZdiH59G0Aq4BBOssQLFd2wVWhxDKDWJ2uuAoF2bnq+7F0XEsL8XhVYiCkY4IipMNNBoATMFq7Fji3kpdV16Jx9tU3vRtMn0YwPzJMzjKI5coErmperbxobhquccHLxJWHmKuqnWHSC1EMUl2OSPsFaVbt55+J6TWX5mXWlWicdfW2vwbwsTBjmJzFLleWi6uinZ6vQJUSQoBnm+yMp2PHHOmzv8OeC8/IwzC3aJxz9c0XEOiaDokhcha7XFk+rhKPnq9AlRJCX+Sb7BTKFflhOQMMAtPncd87npCVZS7ROOuam05m8Cc6fIbIWexy5TLgylKVsguGIADdT3ZG7cnpaEcdAZevyMo2s2icc9XNTybGfwCotdoeJmexy5VDyVXViio5tIIRJFVi0E5zUG4QA62gtPdVCQrzn+KBtz83C+NMonHu5t01Jv4PAGuCRofHWYZpuVLBNdZhZeGqyiqYK+u4DvtKSRALLHBVCINJDCLlOkFh9X4tEOB/PMut5plEY37lvktb92G0mx0mZzFwDWWOFTXychUKCuEa0doycdX/zYvjqsIwP4QmBHUvJzsjnWcUlOfjgT97VVr2qUXj7I/f9HwAf9Phk8JZ4jUG4yxlWNUZJq6qdpQa0y+uLFVX+F6UVokhdFDvJzsVtoOkLCj0/rSjjVSicermbS58fBZAJWgwlbNE/tYDcha7XJmd6zCvQCn7vgwQgre/k51xG2qxehYe/FPpM5xqpBKNFSudCwAc37JdUmeJM0jJlYefq8RjmFagolxZ+imAaykgHocqkNtpDsoNYqAVlPa+JkGJjS6ktI/3pDmaRNF41ce3rQL40qDRopwligKcJXEJcJi4xprpI1eWqsRFdHi4lgFiwGrEIOyvBEHRiQFk2wobSrGSBAU4Cff+2bOTjihRNDymSwCsyeMsigqdEtmBBuzY5eIq2emGq6oVVTIt11hWWbkOGrGAFPKldOR48gqKwYZWrIKkkHb8C7SHFFQxFb7iih0rmfEOk7Ooybe2Y8caBFW/HTvmsWXhqsoqmCvruA7Bw32ynQxcBwtBDEo12SnzUwkKvQEPvXnCdHRG0WC3cQGAVfG/o/RHizmL4lj75SwqriwWlYmrPuiK46rCkDzcx2aual6DhBC85ZzslPgpbaxAo/pK5eG1oRWNUzdvc5nor0qxBJjWWcrAVdWOUmMGt1zZM66RporhaiJXKr2IcNcGZDtuE8RAKyjtfU2Ckji6EPkpbLTK36A9TBhEY+VKvAQ+H2l2FsUxDcpZlv1y5TBxVe2n5topVkldWVRDDNiEgNSJQaRcJyis3i9MqvIlQYHBRtA++2dg71sPix9nC1rR8JnelOwsUYGwy5Wq3SxXLcnwJwfXUgwz5IAU86V0RDDyCorBRpbJTlXbEUGBi0XvxdBAKRov++S3JwE+W0W6dM5ilytLw1VRoVMi8y+U6wARBly4EU3HAlIhBlrBaItBWK4RA6VvCGJmEhRd24SXKo4WgEY0qDH2agBjsfbFjFI4i12u7DfXiEWJa8z/gr9pT7n2Dn610jTX4KpWDMIfjRiE/acQmiBtEoNAUFT7iYIR20/HL9b2i3WvBFSLBpOgMuV1FrtcaeAq28nAVaHEMoNYnYFx7SFGuT6TUGVl60cKSAaGYLJTypf541DcO6Z8ZD4mGudu2VIB+LSIgdBsiZylL8uVfeQar5GRq9qAjquaVysvmpuGa1zw+sK1x9jv+LPmGjypDEidGETKdYKiCeQwqcqXBEUnBuGPwUaEn6+8RImJxsF71zwHwKHlcRYF6zI4tqqdbrhGms/DlaXqCqGK0srBVdX8gLj2GAws3P2Jd9YTqkVHGpFjUQhDKkEx2Ch0slO2LfMHAFI+wBYTDSKcltpZEC8s3lnkwLTLlfH91Fw7xSqpy8OVy8G1DyDgV8YKuzfXAF6pD0h00rGAVIgBK/JDEypBEdJ5JztFfiqRA5+A6fPWyIcen9NgvCC1s0gHMkxLgMPEVUky/MnBtdQrUAlc+wXCz43lqw88FYCjD8h24JnEINKnGhu9nOyM8FPaICzg+ZAQEQ0CCMBzo7v2y1lYqiLbLZNjF89VUaFTIvPvOVdZBrvgqmolN9f+gRi/MNfg45bAZKeBf7sOxUUj8gHol1yx9ffgYE1vnUVKpnXsWFY/HLtYrhGLEteYfwVB1VOuqqyCuXJxXPsJBt1mruEfJ9aOpE1iEelPg6CkKtfU0bafVK7iRydCQmSkUanQ89Q7t7aLcZYhWK7sgmtcpKR9YlwVf8MsXIWC7Fz1/Vg6rv2FX3MatxhrMJ7RYisGZB7BkGyYBIOhEQyh7cJHP/gDbDs1MriIiAb7eF7pnGUQy5UJXNW8WnnR3DRc44KXiSsPMVdVOwPXCwDAj3/wD3/+qL6YCOBTOtuqgFSIQSwgVQEr5Yd/FIMYhD9JYmUSFJ1Y8TiecvjvC5nSRCjxiaVyFrtcWS6uinZ6vgI1CDB93Vi+553PAnBYGHgmMYj8jVVBLQesIt3byU4FP8mGx5FLlFA0XnHFjpUA1ss27XKlSurycOXh5yrx6PkK1IDAFfqKsYJDndsSTAE5LJOdOsELJ0M5MhkaXqssuovPdXyulMJZ7HLlMuDKUpVyCAaAH/zoH95mXjlh72VgglYsIn1oEJRU5Zo6WrFKKk/DTyrn6ApKONIgz99QDmexy5Vy4XBzlZLlFgwQ4VPGCtN/8TtgelG2gORounSTnUJaPfo5Bve+Zl2w0RENouOVByDBLlcauMY6rEuuXFwQDtUK1IBAwP1OM+HSxKc3A9yOG4UYKAMySCoDspMe2GSnwE/ZNgOohl9W7EyE+u3vmgzSWQyOzZ3G4jXychUKCuEa0doycdULRHFcVSjfQ2gmMOjy2z9zfsNYiYJX4akCVpEflpsCElCPLiCVG2ykEhTE91Pyk9sG0PTDQYUDtJ9sJTw9rDYIZynDEuAwcVW1o9SYfnFlqbpCqKK0Sga6Z9at/5Oxyt53vhTA06LHKgasRgxMgsIwC0qkXGEj3MUgBkp+Mn8dv/Z+TudKxAWAhfsOeyrgjw3dEuAwcVW0s2xXoJR9P1gQ6C8Tn2r1/fd1NhKCDYDx7B0p19SJ9ROnLE/DLwt/AMzRkYbn8/qhXAIcJq4Sj2FagYpyZemnAK6DBuNrd37qbd821tnzjtMBnBTsED9AjqYHNtnZbpsV+4XtJwhGhF+wH08Fb/JqzWmw94zo/gaP7sZZEpcA8zt2/7nGmukjV5aqyHaHieuAwXig4tPbkyvSB8wBGSSTAtIgBuGPSgzaaZMYKMVMwU/Zto5fuOMofo1jgbZoMNHxKh/p/3KlTDXq2IoKA+Qq2emGq6oVVTIt11hWWbkOHL4P/pPbP3P+I8Za0+84D+CTzQHJKQPSYGPQk52Jo5/WZGh7pNGaBBUrD/1yZWFcVVkFc2Ud1yF4uE+2k4Hr4EEX/fjTF37fWGX/X07Cx5WdY9KIgUlQIgGpEYMyTHYq+Yltt+Y1gjtCjxYr2eVKcRd90BXHVYUhebiPzVzVvAYPAq6+81Pnfzyx4lzz70E4XBlsAIxn70i5pk6sv3QBq7FhEoPE8jT8Inkt0XjVx7etArCyb85ilysV5liqvsQf7hswGPTFHz1x+pLEig/++akgXBgL5CBtCsjSi4GCUxI/5mMAwFmsN4/qm7Ms++XKYeKq2k/NtVOskrqSqQbjUz9+4vRbeNMm31jv4bc9EfC/DHAl2LFjI0kwWMiX00D876wSDION1IKhsaGf7FTwE+viKABwGc6RgG+XKy1XNcnwJwfXcg0zmJg23fnp8z+UXHWzg4b7JQDt5y3yBKymTu7LFV37WdrW2U7d9lrc87IRFw4fFf2D98BZ7HJlabgqKnRKZP6Fch0oHoWPN9/5j+dfl6r2gw9dCeD0/AFZsBjkFqsiBEVsnwmee7gL9o9kJoWBXjq2ZKcbx1a1okqm5RrLGj6uEYsS15hvBH/TnnIdKLZVPPqT2z9z/n2pau+58GKA3q0OuCwBK6S1AZlXUCQbuQRFbD8Df3KOdJmd9pxGb5zFLlcauMp2MnBVKLHMIFZnYFwHg/0AvfdHnz7/c6qBrhJ7LvxjMC5PHZClFwMFp674MUB0lAPitb1zbH3Qlc6xh2m5sgwrUGm59h8zYPpIY9F96g8/df5nMwjG68D4Z4T3LiUJBgv5chqK/lEFpMFGasHQ2Mg92ckGfgDAR7rweQLC1Uk+Z5F3QjkcW9VON1wjzefhylJ1hVBFaeXgqmp+QFz7CALuZ6b/45H3iZ98+u2/zbTzngvfAcYnATjZAlZTZ7gnO/W2W79HuiCMR+vncRY5MO1yZXw/NddOsUrq8nDlcnDtBwgPgfk7hMqXfvjEPd9PXEaNGyA8cOEmEDYByBiQBYtBbrEqQlDE9hP5P8kFMJ7eWRBB4Y4tNWSXK01cY82Uh2tvsB+EnxPop8z4H6+CG//nH86/K/XlR8zaX05i/sJ/AvFGAMIxZAlYIa0NuLyCItnIJShi+0UJCo23RANpnYWlKvLfq0yOXTxXRYVOicw/mesjDOwG8FOH8DMfvNfxnVl2eBbsPR5eMgZofzMzRCNSFEu1qshGlDuptxvRgmix2KL5RVd54TH5PvGBMcc/sN/xZ5XvuvhkTuMPnv8sgLYAdGxiQJZeDBScuuKXWD7hgjFhlyvVdWSusf4PBCAd130AthHTDX7Vuf7Wj77+N7DoL+64oIon0rtBzqUARvt3djaVG+oUOvopQlAAwJ9wGTwW32cIliu74BoXKWmfGFdF/6bj+jhAW3wHn//B5X+8I/dQ2qJ77Hn7C/Ak+kcAxxdzhi9CUMT8vGKgsNGVWCWVC5cnYmH2INQLBAv/SzUyBqEKpV2u3E1EV836zWt/fOWbDgIALlMegEWvcf8FvwuHPgDgTQCofMN9KV2OyU4Tvwk3zGkbiwWUYbNtJF0QRuIqcxDG8uJkJBa5uKqaz8R1F4OvOPI31S9fe+1GT8HAol/Y+/Zj4PF74dBbEbwCwk52puCX2Pa4C2Ae3Hk0Xk0w2IzXyRWE8j7x5qT91ILRKVZJXR6unIsrAXsBvnjHlef9q70EGSDuuKCKwysvh4+3AvxShO+LSQjI0ouBglNX/LLwj/GbcMFYAHhlpJocb8pMu1zZaoi/1Kg03/WDv3/zo7hcUcWit5i+YBxN52RU8DI8yXk9fPkO5wGenTMFZFkERbIXLx91AZ6LZEmNKINQcQ7CmV4QAAAgAElEQVROCkJFhU6JTCyTYOThKstgHq7+fQ7RG2657Lzt8VoWPcEdF1RxuHss4EzBb04BdApQeQEcHlGeTbs+wxchKBKn1G3rbPdMDNLy81wQFqJilyIIY1nxOnIQxo4xEADNmbxnS6sxJcjD1b/Rc+kNOz7yxw/J1rPh3Ar2Hflk+DQFwrEA1gK0Ej6tgIOxxN1LB+GGTF+huEF5vIPVNphHQFgJpknAX43D3SPBqII9tO4VKcvZOUvA6vgVIShi+3kFRWxf2XbTZca8iog6CCU7UkZ4/mZFjbSCwZJgCAXZBEPDVez37Fx9Yv/9O64876O55y72/c2z4PlngnA6cPRJQFscRGsU51V+BB1bsMOLD15xlw7fFb+8giLZyCUoYvtd9G8xfdN0QbTQOivI0aMKwhI8hBaP6n5xbQJ8/vYrzvs8rog3Z8RDl6wF8ZvAeCuAqdjdl0ONvAGZV1AMNkwBWXoxUHDqil8W/jp+yvJFl5gPxsJLEYN9WK6MB7NKIHrJVdFO2/4csb9x+xXnpXvzU4A9Fx2FCi4G6HwwRjPtOxQos8OL7WcJWF37eQVFbL8sgiLZy9a/My4zTyNWVQqgHi5XRo2oBaNTHGNRLFeJR0cw8JLtV5x3i4K5Go+9axXqzodQofMB1FLvNzTI6/BieiAOr+BXhKBInFK3rbNd4r5hOuAy6EESwy9xuTJ/EEqGpZ8kwVDs3fulVY99vHHHla9PLxgPXXI2qPIpAEem3meo0A+HB8p3ds7LX2NjWEc/5M+4BP9BgNRBiGW9tMoAvW3nla/7z3ipAo/87Up43ucAvE6pkUsChjNQpFyTH6RLJShiugjByysoYvtd9G+v+wb8W9chetBj2VirUm+WK6M2Svwu0g/uuPx1n481pML0xU+Hg68BWJ+q/tAhr9PlFRSDDVNAll4MFJy64pdXbDU20vBnTLs+/AfBiul8VRCKxxYLQsUxmwSDJcEQCrIKhuk+kXxceesRv3ZTfB8DwN53vwiO8w0Ak6nqDx3K7PBi+1kCVtd+XkER2y+LoEj2CutfnnYri/Rg00UUZVhaVbWj1JjCuT5Ucb03XHvtHyc/cPbQRWeBnGuBYbwRKwl5HV5Ml83hs/LXtb+s+2bancfY3irmPQCVwIg5CBW8YoGZRjBYqi4LBCs243UK58r05ps/8sZpJOGhi84C6D8AVBPrDh364fBA+c7OeflrbCzF0Y9DDzhbN53SBLA3MJIchBxtN1ZBFgwVL7VgKPsgXopecSXGv+644nXXK5hHsffiPwDoq1jSgsGIOkwewTDYSO3QGhsxfjJ/nW028JP5G2xo+cn8dfxM/ZsgGKzjL9g23wpuEDwWyhU2PO+e4MLkZ2A+IhbnOYPQZKS07yIlzABI/pL4Q5c8GYTrAEwk1h0qZHV4U7kmP0jH/gYZAtYoBnnalmwYy5Hx2PvcN1p+efnHbDQx//i9rQ/DEN8VD0IpmKUgVESpgle0sMzvImXgfdsvf/2eeA0Rm12AvwxgjbnesEF1BpLPNCyVC/sF6XAXjQ3tGTJIJgmGgpPMPzEgDTZSB6TGRqbRj6Z/dX2TSvAMfRPhr+OX2L/3YsPtDRcA2OPdIIobURJubcf+Pu2NVCslQp1sgqHKKoKrf9/MWPVzscZk7J39KAjPT6w3NMjiUJr8TAFrsJE6YHX88vLXtW/7Jt4+fgq032zkO7jL4Xglju+kbiOLYAgFWQUj1dJqvEYiV4Lz0bs2bVxUkOzg4YtOBNFFxjpDhWFxeAWnrvhl4a/jV4SgiO3n7V+x/T70L+EnQPu7lY47sitkmBiEsogkCUbMQGBFczDKZpF6aTXSfCqu09XxhX9WtCjg3Ap8+gfEvw4ypBDPQKLD5BEMg41MDq9I28lO9X5heULf5J3sDMulfN//EdAWje/97ekHCPygIu7iQYh44VAurXby/9fWTW9ZkHMj2Ps7bwfh2cY6QwE5IMV8Kd2NwysDUhaUoh1eEiuToKQKSM1xxfhp+qbbuR9d2wE/1XGl+tvJbSts6Pqm4nRGGq12aHfUFEd5xqJUF4TxOjJR5d8jXhoQSyEY6bgqWmsSnC8qCjv4zeZREL/PWGco0EeHVzpdkEwKyLwOL/DTiYFSzBT8lG3r+Mn8od7PGJAyfx0/WVA0/as6ru779zE8bevdgCAaYN5VQBAKP2kEg6Uqst0ePzAHfDdxxWR05k8BrDPWKTXyOjykur10eJGfwUYvRz+DGO7LfaPsX5Gf5riU/HX8NDZi/CQbzDsB9oHwFe8AE+6MGIiRQgyDWlqNWJS4xv4ugVipuDI+DyPOrYCOvthcp8xIIwam8nY6UQxM5UghBgpOXfHLwl/HLy9/Xft5+1dsf4D9S3RrkBOKhud7t1Ucp9sg1AhGKT+duFibcL8bb1jAviPPAHCMsU5pETiEdXh9+0UIXhf9W2jfiOke9A3zzmArvDzZuumcewBE3q6dXTBUKMX7PVVcb926aeOsknIA33mzsbyUYKR3aKEuFOnMTie1PdTDfUj8dfw0NmL8JBtlnewU+Xf2W8BkIxxpdOY0WuX/3UlmDsJYXjy4JSlQqUzelZKsXJlvVLTewSN/uxLgVxjrlA59dHil0wXJXjm8wC+9wxv4GQRFJ1Yxfpr+1fVNIj9ZUNL2r8gvoW9M/av82/q34Mid80GVqGgQ3daqrg727lZKYlIgEUdKwWCpqXxcmfj7ihodeM0XATRurFMa5HV4SHVL7vARfhobMX5S3wz16MfUv2zgL/BTHZfIT7Uf0feEDETepMG+f1t4+5KSvHwQwU+SYCj2lqM6JhixZqAVjOxcmRfwP4rKwm7OqSCVvbIhjRiYytvpRDEwlSOFGCg4dcUvC38dv7z8de3n7V+x/RL2L3t60XAnRn7QnKs3wZBfyxMf6mcSDJaqyMHYq08nark+eNsn3jAT3zNi5VRzeRkQHJh1eH37RQheF/07TJOdan73Yv2OHwmF0cuT71585kEwdss7931pNaYEccGI9VUGrtR+8EaPzS6ozO/7ZKR3aKEuFOlcZyDB9lAP9yHx1/HT2Ijxk2wM12Snmh/h/0KCI2cQcJu4c6qlVaEgm2BIfDvGRQaxOpkEQ8HVZ75bQb6DR2aegtJ+r6SPDq90uiDZK4cX+HXr8Mq2dfwkG6a+0fKT+ev4yYKStn9Ffgl9Y+rfVGIbpr8OCTHRYML25CCUd2r9pxMMyVgkL5qrEIxYUzKB7Fwd4LdxMgI852nG8oEgr8NDqltyh4/w09hI6/C6vin16MfUv2zgL/BTHZfIT9d20H4A4n3YV4198yc2d1FhvtGL7KsKwmhePDQlKVDoRe6lVUU7Wbn6rbd06UF8hEKvBog0YmAqb6cTxcBUjhRioODUFb8s/HX88vLXtZ+3f8X2h6R/GdfilK1NSIiNNK7fdM4egOLX/JrAjIVmr5dWJR55loEBelyxVwc+rTSW9xXBcUtnjFyCYbCRyeEV6aU83E8SjCzDfV3fDGT0I/OX8/1/hQIx0Wjt5t8QOygIgRvmyYIh20E8qvu7tKrkyj7Md4KCV5jL+wE5IMV8KW0nOw38TILCBv46fpKNpTDZGdsPAHAvjr/1ViigEQ18I59gsFRFDu4eL62qWlElWTk+ETDom7pUAdkjh1c6XZDslcML/Ap3eJmfwYapb7T8ZP46frKgpO1fkV9C35j6N/fopw3ClxUBDEAjGsAh2wA80qGSFITRArVgqLLioiILRqxfArFS/cFYx1WepC0rTAGJaFrrMEPg8BF+Ghu5HF7om6U++lEdl8hP13bQvtK2AOKvqAs0orF10ylNEP4rFoRCQ1kFQzXqiPh/TDAUf7dEwVAhYVWnNOjG4UWHgeI4i3R4kV9Oh4/wUzi8SVCGcrgv8zPYMPWNlp9gI5OgaGPhRzhux126Qs1IA4CPf4uZbBPmeKZ2s5XXr6VVlqoncC0NunX4drovDq9x1hi/IhxestfT0Y/MX2Hb1L+lHf3I/GUbSnzBVKgVjRc5P/oeg++L8pMFghWb8TpmwUBsI+tDaDrBMHEtB+SAFPOltJ3sNPAzCQob+Ov4STaW7mSnCnMg/19MFbSisWnTJt8B/qXTvhSackwqM3u1tKquk5ZrOaAKyB45vNLpgmSvHF7gV7jDy/wMNkx9o+Un89fxkwUlbf+K/BL6xtS/3U52KkFfxtTO/aYa+ssTAOzg/wPDUwdhJOzlqIYQ/ohWzC4YJiO5VnWQ/EH43sEUkIimtQ4zBA4f4aexkcvhhb5Z6qMf1XGJ/HRtB+0rbSfAoX9MrGIq3Lrplb9h4N8jzaYVjFiWFMySYCgURd41VljUqk7/0I3Diw6D2LEV6/Aiv5wOH+GncHiToAzlcF/mZ7Bh6hstP8FGJkHJ5O/bcdzNdyZVMooGAJDvXZk1CPu+tCrbycC1f+jW4dvpvji8xllj/IpweMnekpns1PRNeSY7FeD/naZWomhs/fBrbmfgxtRBmGZpNV4jo2CoDegEQ82rX5ADUsyX0nay08DPJChs4K/jJ9kofLJT5q+zLf9tdfw0xxXjx1Kd1JgGHfiPNBUTRQMACPzeWNSpeKVdWo1ogKwCaQSDpeoKoYrSGhBUAdkjh1c6XZDM6vCSDa3DC/wKd3iZn8GGqW+0/GT+BhtLbrJTAeKrMHWX+XvGbaQSjW0ffPX/Q3tuAwg4SgT7sLSqMNDZJ0pOtqgw2EuYAhLRtNZh8jq8ZGOQk52FDvel4woDLqFvTP2be7iv46/jp7GRSawUNvJOdsbxEObriROgAVKJBgAw+H0AFpRBWODSqtxq9CdJMBR7ywrEDF/RUnHoxuFFh0HkGGM2hmGyU9d2wE91XKnESm5bYcPUN8qA1fEz9K9qPyU/Tf/qxCqzoHQlGABwGTbcPpe2cmrRuOlDr7mbGR8pYmlVUaFTIndWJsFgqUoKroWiW4dvp/vi8IagLtzhJXt2slPDjw38ZP6yjdz4FUYmP51lh9SiAQBOdfVlBPy4k9OHTyd29ogVZRMMZVZBkAMywiSatpOdBn4mQWEDfx0/yYad7IzDcS7CsdfVM+2SpfLWTac0faa3Amg1EuMtBW5MMBT9ahIMlgRDKMgqGL1TDFVA9sjhlU4XJLM6vGRD6/ACv8IdXuZnsGHqGy0/mb/BxnKY7Izjehx3c+zFwUnIJBoAcPNHXn0ngd+deqUkUkMWkSTBiBkIrES2o3XUglG8ZJgCEtG01mHyOrxkw052avixgZ/MX8fP1L9s4C/w0/VN7G+nsFHcZKeMg/Dp7Xl2zCwaALDtw6/9FDOE5+1lwUBso1Sfeez6LvJuHF50GCiOK43Diw4t76fjl9PhI/yKcHiJv1as5LYVNhIDUnNcMX6G/lXtp+Sn6V9d20p+pv4tVDAAwkV4xi2/yrNrLtEAgP0j/BYAN6oFIyoQZfzMY3506/Aij147vCGoUzu8xoaRn87hkwRF5NdF/9rJTjMI/4ap7Z/Ju3tu0bhr08bFSs19LTPuAlIIhrETWPpJEgzF3oql1VhLXfW/HJAqo2kcniPHpLQRO9C8Dq+w0TOHF/lpjkvJX8dPYyPGT7Ix1JOdur4pEISfo9Y8vxsTuUUDALZueuVjfsM9zQd+2Mph6ThlwRBKNArQv3eRZoEqIHvk8Eqnix5DNN/k8JINrcML/HI7vMjPICi6tmP8NP2r6xslP5OgpO1fkV9C35j6N7fYFopp+PxyHHtbwidJzehKNABgx5WvenjMx6kAbpEFI9aHgQCoOodVgiElUwmGKkvOSDupYQpIybbWYfI6vGTDTnZq+LGBn8xfx8/Uv2zgL/DT9U3sb6ew0bvJThGPgnAGjt/xy24NdS0aAPC9yzYeWDm74gwAnwjyuhIMoSCrYKhGHZG4Tv1H6cbhRYeJc0/n8KJDy/vp+OV0+Ai/Ihxe4q8VK7lthY3EgNQcV4yfoX9V+yn5afpX17aSn6l/eyUY9ADY+SNMbd9VhLVCRAMArvvES+u3fPTcvwLznzB4NptgSGj/ITieqd0MGojtk0sw/NBePocX2+61wxuCOrXDa2wY+ekcPklQRH5d9K+d7EyLH6LpPQ/H3/yTogwWJhoBbrnsdV+Az09jwhdbOWkEI5oXFwhWbMbrmAUj3rwRdrJTfVwhP81xKfnr+GlsxPhJNuxkZxowwJ+FN3Eyfn/ng0Uajn3LtQhsv/z1ewC8+eS/+bdr2cEHmfHsWCWNiMRkRNYGZWb2B+bSIYtDyW0YAlZnGzA4vKk8K78s/HXtZ+Gv41eW/hXbH0TfFI6fwHf+Es+4+aZeGC98pCHilite980dl79+AwhnAbgp7LXQP9IIBktV5M7O88BcGhR1BlJxyHIGyurwOhsJgmEnO1MIhqF/yyEYPwPRG7B+x7N7JRhAj0YaIlqDgNd/C8C3nv/erx7j+PwGAK9l8DMRiJasHWEihWDEsiThiQlGmj9Y8PB8kljI9nUObyqHwaFU7WcRM137Wfjr+OXlr7DRVf+K7Q9T/xaGR0H8dcD5PKZu2d6LBmT0XDRE3PrR1/8GwEcAfOTEd29ZjWrzhfD9EwH6PYCfyuDfBWgknWBA8TeIi4osGAyAUrHN4jBLyeEle10Lnu2beJ3ceASEu8G4G8CPQLwVUzt/AnBvXxEjoa+iIWLn1Rv3A/i/7X8hTnz3ljEAY000VpktaJ7mlRWB4ptz9fmHU5EsZP5AzC/L2TmNw/vvRKVyHWKoR36SQZq0jIW0BgVzJtv1tGcHjY0ErpnpZibT3s1pgP1Z/GzdDDZeO8hvb4QYmGjosPPqjfMA5gEYP9jSU/gAqOjhaJJgFCEoYvvdnuGdh3H0l3M90GTRAzxj0AQ6KJ1olAPSnIaYLvNwP4lfpuF+KU5qFiWEFQ0t+i0Gkj1jeRp+RYx+LCzisKKhhI/ONWhRw/005Zo6hQuKZE9ZbmGhhhUNLQqYPyj9ZGcCPwsLBaxo6NCT4X4RgiK238PRj4WFBlY0tBjgGb5vk50G25RzidBiycOKhhLSnEbwO0gx6Nlkp6ac+W349WtPgwhfth0paP/o7jPSjWKE+sp7lFLsF2nfsF+MXwLXZvP9eOaOdPf0LCNY0dCi4OF+KSc7jfxOB5PQfoq2iREXW2ToG1LXSewbzX5KfmIdgrFvqu5VAKxoSLCikYiE+YNhn+wcptFP3/vXQgUrGlosAYcv3einCEER2+9x39h5HSWsaChR8jN8oWIgppfS6KcIQbFQwYqGCqZnT+xwPyN/XfvDNPqxEGFFIxFldnjJXi/P8EMnBpK93H1jIcOKhhZlOTv3WAxy8VtKox87usgKKxpKiPcOlNnhxfbLcoYvQlDE9gfRNxYmWNHQYsBneDvZmYJfEYIi17FIghUNHUxOZ4f7KfkN0+jHIi2saGgxTA5f0Bl+6MRAsmdHF32BFQ0lxGcS+nF27rEY5OK3lEY/dnRRJKxoaFEWhxfbL8sZvsDRz8D6xiIvrGgkYWgmO4sQA8leKUY/RQiKXMeiG1jR0MEO91PyK4vgpeFvUQSsaKjAijkNMT0Qhy/oDD90YhCmHwF4AoyxfPwsikJPv+U6/BCdv+3QzNAGRVikOcOzOOTWjB5MQc0sBbWOn8aGsm2Jn67toH3VcUXEKo9gCPxbaQ/gb4NwARzvKeDDRnDc1sNw3LZxLNIT4PMLQLgc4F/q+VvB6BXsSEMJxZu7jA5vKm+nh+4MX+DoJ1vbN8BxLsLTbvgJVHjW1scA7Gz9o/dh90mvAeNKAL8Tt23RC9iRhhG6M2gGwdCOLnSjB7ltIN3oosSjn0TBYADcBPDnOO77Z2gFIwb2MXXLFrj8DBC+ZQWjP7CioYUYkEJerFzMl4KmPMN9DT/NcSn56/gZbJj6JiooC3CcM3Hc9z+FPHja9sfxsPtKAF/Itb9FJljR0CG1wxvO8JF8k6BozvBRMtG0afRjHF3AMLpgqVzXNgz8RbE19I3Ij/nP8LQbtqIbnLK1iYWFPwPxTV3ZsUiEFQ0lfKR2+EgdNgRkkEwKyIQzfCRgNfyMowvDyCVoX3VcPRv94HOY2vplFIENtzeA2usBzBRiz0IJKxpGpBldSGf4yH5Sun/DfbWNnox+TKMLqW/i/A6C+QMoElNb9wK4qlCbFhFY0dBCChpTQC7ryU5T2wI/dd98rh3kxYKq1wB4vHC7FgCsaKjBaASJeECazs6Ip+1kp6ZtAA59Db3A1NZZAN/p2g4tNrons/RgRUONx/UBiU46FpAmQdGc4UV7cnopTXZG6jDA/AietvVW9Az0za5NNNwDBRBZcrA3d6nA3B7a6hxezpPSQ/kgVxb+OtsZ+BN+AfV3GIsBeT8Dd3VOZDzq2kscBaxoqMDY1/mEQd6AzCsoYn5eQTHY6EZQChMrBoDi5zJENP09qHQhGkQzOGVrszhCSwdWNFRg/LR1F3mZxUCyN2yjH8Y8egnXmYtQyArmXxTGZYnBzmmo4B3yc7Rua0b7+hthOkSas7MYkHkEo70fC2nZdipB0eyXSzAUNnKNfviJ6CWIDu/Swq5CeCxBWNFQ4dhP1AHsNjh8J20nOw38dfwAAEegl/C5O/tEdxXEZMnBioYW/F2Dw6cIyIQzfCRgFTYSRxdlHP3I/A02mJ+OH5/YQ+GgU7vb37+xGB5LD1Y0tOBvJwdkqYb7Qnme0Y9pdNGT0Q+hWnk5egbnnC52nsbUzh8XRmWJwYqGDo+s2A7gobjDJ5ydl+ednR1+uraD9sX9fP8CgAhF46cveCHAx+U3QN+UlNVCgBUNHTZ8pgHmfwq37WSnpm0dvxSCQnQC7nrBuSgavvPRrvYn75+SKy1fWNEwwefPgLhpJzsR3y8szzv6aYNwJe56XnErKXeddCHAJ+ben3AHpnb+d2F8liCsaJjwu1+5Hxy82CXrcF8MSGm/IF3YcF/M7/XoR+ZvsKHsmxiOArlbsPv4mq5Cauw++SQQ/ldXNnzqbv9lACsaSajg/QAfbG2UdbifdvRjGl30Y/SjxcnAqm/iR6euSlNZibtOOgPM/wWgG/H5MY7fXsy7PZYwrGgk4aiv7AHTVb0b7iNad6lNdqYF4wxUG7di98l/mH4nAPe8bAS7T3ovCNcByC86LbwLvXweZomA2E4SJ2P3uTWM4TYwnt3JzDrcN5W304nDfVM5cox+0vLXtZ+Gf2YwCNeC+WNYv/N26aA6uOd5k6i7rwLwAQBP6aZBAADxFzG1481d21kGsKKRFve8dj0c53YAo9ozvJwXpFMH+zCJQRp+3YIeAPgGMN0L+A+BaBTAUQCeDuCPAIwU0wx+jVrzWTj2NvuawBSwopEFv37tG8H0BQCUfbhvKjfUKcNj7Fp+hY0uBolFsH8qjt+5c9BEhgV2TiMLnvy1L4HwYf0ZXkrnOsPr5g/SCobQdrkmO8sIBuhtVjCywY40MoMIv3zNZwB+WyeviLNzltFD3tGF2H7Rl1NDCML7MLW9uxvBliGsaOQCEX756k8A+Iv+DPfzXo7kFRSDjeEfXbTBl2P9jvcMmsUwwopGbhDhl6+6HMAl+c/OZReDNPyGDgzgIqzffs2giQwrrGh0i1+9+q3w+dMACzcVFRGQeQVFYaMno5+hxCzAb8H6Hf8+aCLDDCsaReCXr3gBmP4VwNH9OcMXIQai7SU/ugDAd4PoVZjabt/I1SXs6kkR+N2v74BTeyaIv9LKYCzbOzvLCOIvgmonWMEoBnakUTTuPuc8AFcDeGK24X7Z5zeGEvfBwdtx3PbrBk1kKcGKRi9w31lPQN25DOA/g/jxjVKKwZK8HFkA+Cos1D+KDbfPDZrMUoMVjV7i5694Jir+ZWB+qZ3s7At8EH8ZTXcTnnnTrwdNZqnCikY/8LOzT4Hjvx/gP+pk2snOwkDwAPw7gA/aeYvew4pGP/GLlzwXcN4D8DkAKvbOzq5xEMDn4dM1eMYtvxo0meUCKxqDwM/PPBxw3gTwOwE6ojzzG8MC+imAfwF5n8PUzv2DZrPcYEVjkLjjOVWsPPR0gM4F+68EsMpOdmpxD4CvwXG24Lib7xw0meUMKxplwT0vG0HTOxPkbwTjFQAm7WQnfgOibwDYgqntOyTFsxgQrGiUEQ+cOIbZiReC+TQQnwbGswA4y2Cycw7AzQCuB+F6O6lZTljRGAb87PRD4XungnAagNMAPLVVMPSTnXMAfgDgFhDfhNohO3DsdfVBk7Iww4rGMOKuFx0Ft/Jc+P4JAG8AsAHAmpJPdvog3A3mO0G4HR5uxWL9dmy4vTFoYhbZYEVjqeCnL/gdeO4GODgBzM8A81NAOAbgFQNgsxfAboB/BsZd4MpujC3+0L6Dc2nAisZSxw9feBhq3jEg5xj4fAwcejJ8fx1AqwGsBmE1gDEQJsGoGCz9FoQ5MM8Bzj6AHwHwMMB7wdiDCt0Lxr1oTvwGz/zuwf4cnMUgYEXDIop7njeJ+WpLPGa9BTx/5/yAGVmUDFY0LCwsMsG+T8PCwiITrGhYWFhkghUNCwuLTLCiYWFhkQlWNCwsLDLBioaFhUUmWNGwsLDIBCsaFhYWmWBFw8LCIhOsaFhYWGSCFQ0LC4tMsKJhYWGRCVY0LCwsMsGKhoWFRSZY0bCwsMgEKxoWFhaZYEXDwsIiE6xoWFhYZIIVDQsLi0xwB03AIh+IiACAmbF582aSy3ft2hXmbdy4EQCwe/fuWL0iMTU1xQCwZcuWSP769esjL6LdtGkTt+mD7Utqhw72xcIlg0oMAgHYuHGjMvDXrVsXyZueno5sT01NYe/evUbB2L9/fypBWb16tdFhnvSkJ/Hu3btlfpF9pqenYzampqY4EBtRZC699NLWF2yto5YGVjQGACIilSisX78+EriBGIgisHr16jCtCvQDBw7QUUcdFcmbmZlRCY0yPwsmJyd5enpamS9u33///TjkkENijiYK0P79+8N0IDKyuOzatYuBjqgEI1rodG4AABASSURBVBYrKP2FFY0eIhg1XHrppaE4yKMFWRgCUZAFYXJykoCoAExMTITpgwcPEgAcdthhEQ6zs7MRO2vWrInULwITExP8yCOPRPJWrFgRcax9+/aFdQXOYToQmpmZmch+gbAEoqISlGCUYsWkP7CiUSCIiHQCkUYcZGEIROHgwYMkikEgBGNjY+G+c3NzEREYGRlRisLCwgIBwCGHHNLl0bZw4MABAMDo6KjSker1eiR/fHw83J6fn2cgKjD79u0LhSUYyagEJY2Y7Nq1iwMhsZc5xcGKRheQRUK8vFi3bh3pBCKNOMzOztKaNWvCEUEgCrIYBNuBGLTtR7YDVKtV7eiiXq+nGnmMjIxoHabRaCjLFhcXw/xAXGQxCbZ1opJFTEQhMYmIFZB8sKKRAeJchGokIYqEPILQCUSSOCwsLFAwKlhYWCBZEEQhEANflT8xMRE7psXFxVyXKbVaLeY4Bw+2PuEqCsvs7Gy4LeaLAjM6OsozMzNh+sCBA6G4BOlATIJLoWB0Mjc3x+22Q0FJIyLiJY29nMkGKxoJSCMUppFEIBLj4+MEtEYQwWWFTiBkcQgEIAj+er1OK1a0PgZfr9cpEINAAMbHxyNi4LpumE4SifHxcWX+3NycsZ9EEWk2myznz83NhWlRXFSiEghKICaykMijkvn5eQ5EJBiRqEREvKTRjUKsgCTDioYGuksP3YhCHk2oRhKySIhiUavVCABWrlyJhYUFCgRCFIyJiQksLi6SKAqBIIhiIItGpVIJ041GI5gPCY8162hDFIj5+db3oavVapjneV5ENETBCfYNhCUor9VqLIpJIByykASXOqOjoxyIhygi4kgkEBDxciZJQMQRiL2EUaNy6aWXDppDqUAtOIcddphzyimn0L59+5y1a9fSunXraHZ21qnVas7Y2BjNz8878/PzNDk5SfV63XFd16nVarRq1SqnWq0SM1OlUnEajYYzNzdHjuM4ruvSxMSE02w2ncnJSWo0Gg4z0+joqNNsNh1mJt/3nYWFBWd8fJyq1So1m02nUqk41WqVKpWK47ou1et1J7DPzKFtZnbGx8edRqNRISIn+Oc4TphmZmd0dNRB625gp9lshnVHR0edarWq/ef7vkNEju/7juM4BCDMr1QqJLQRpn3fd8bGxsjzPKdWq1E7j4jIGRkZofn5eYeIHNd1qVKpULVapZGREfI8zxkdHaW5uTmnUqmQ53nEzDQ2NkaTk5Oo1+tUqVQcz/PC0Rwz08MPP+y4rkuu64Zi7bouzc3Nkeu61Gg0aHJyEvfee29wwqRarUbz8/O0bt06/PrXv8batWtpamoKAGj37t106qmnwsZJB1Y02gjE4pRTTqGpqSkiItq3b19MLPbv30979+511q5dG4pFo9FwVq1aRfV63QkCudFoOLJQACDHccIAC4TCcRyn2Ww64+Pj1Gw2nZGRkVAUfN93gmBpNpuOKBCjo6MUlAd2G42GMzIyQoI4VIjIGRsbc6rVakRAPM+rjIyMOK7rOq7rhkKCtpj4vh8RiKCe67pOW8yoHfDOyMgIVatVx/M8x3EcZ2RkhHzfd9ojpXazHcEIhMJxHHJdl3zfp5GREVpcXAz6gDzPo2q1Sp7n0ejoKC0uLlKlUqHf/va3TqVSoVqthkBAJiYmqF6vh/M/zEwzMzM0Pj4OZg7ndALxcBwHk5OTGBkZocceewyw4pEa9vIEnUuRLJchpksQ8fJDnJ8QLzWq1SqpLjlc1yX50qMtBjQ2NhZeSlQqFWo2mzQyMoLgt9Fo0OjoaHgJ0g72SHmbF4J8AKjVapFtHVzXDS4RItv1eh1A6xKlXq+H+b7vc5C/sLCAIM913bBecClTq9V4fn4e1Wo1zBMvYZrNJsuXMsFljOoSRr58kec/xLkP+bIluKtVvGwR5zwALOugsaIBUDDJKQuGOMEZ3GmpEoyxsbHIfIU4oRnMVQQikVYsgnkIMV8UikBIZJEQBSIQlFqtFgqCKCSBWKi2VVhcXAwFQd4OBMJ1XQ7y6/V6REiC/EBExDLP87QCIopFICSBiMjiMTo6yo8//ng4iVqv11mcSB0fH2dZOHRzHvJ8h50sbWFZX560L0kKEYyFhQWamJgIRhk0Pj5OzEztuYiYYLQvMcLLFM/zyHVdajabTq1WC9Oe5wXX+rH5gfaw2/E8L5xLcF3XqVarREROo9FwqtUqBb+u6zqO45Dv++GlDVqXDpVKpRK5PKlWq05weRTkVSqVsB0AzsjICLXzwl8ADhHR4uJi0CYBoGCep315Qu2gC+cigr4CgGazCcdxqFqtIignIjQaDbTrAQCq1Spc18X8/DzVajUsLi6iXq+H6fblE0ZHR+G6LlzXpYWFBYyPj2N8fBwjIyN47LHHiJmxZs0aPProo8F8Cebn52n16tXYt28f1q1bh9nZWaxdu5Z27dqF3bt3Y+vWrX3z07Jh2T4aL66OBE+B7tmzJzI8Dy5J0owwgpFFsK/pciQYPahGF2NjY2F5pVIJ/zWbTXIcJ9z2PC+cgAzyx8bGKBCFQBjEeYi2AFRc13WYudKeYA1/q9VqhYhcInKbzabbbDbdYDsoZ+ZKsA8zVwKbvu+HbbiuG4pSMCcScB0bG4vkVyoVGh0dhXhswb+gjxqNBlUqlUCAIiOz9pxR2MdB/wfp4NIw+NssLCzQ3NwcHTx4kGZnZ+mwww7DwYMHKek5nOCO3o0bN2LXrl20efNmCh4TWG5YtqIRYNeuXRTcd7FhwwaIowyg9QBYko1gDkO+JAFagiHeXLW4uEjyEqd4b4QoJEDnksRxnPBSpNlsRi5DgknBoF5wqeE4DgX/giANRgVikFcqFcdxHIeZK67rVsbGxiL/XNetuK5baU/COu1VnDBNrSWasI3gn8gBiF4+BWnHcSKXWc1mM7w0A1oCIS4Py/ecBP9E4RBvcpNvmxdvnw+ewwnuwg0e4gvuswFa81niA4O9fr3AMGDZi0YS5CdGAwQOlwYrVqww3qad4z4JAAjnLYDoJGbS3ERQp9lsUrVahed5wUoFxG0xv9lsUvsSKtYe0LpUkCHWSZpkVUEUCyDeT7ob0bJAfqBPRNrXBSw3WNFA5+UxQOtWY/ExbfmpywDiU53BQ1u6h7eCSbqDBw+iVquxfAu2eAdlcLNUgGCiUJw8DFYgfN8PJxKDicjFxcVwUtL3/UjdxcVFMDP7vs/NZtN3HMdnZnYcx/c8z/c8z282mx4zN5vNpiemicjzPM/3fT/cp9lsBpvcaDQgt6VKBxOkYl0ACI4tOGaxL4Jfue+CydBgW7wpLA3Em8AAIJgMvf/++wF0VlLS2lsuWLaiwcy8adMmXr9+ffjyF9XLYURMTk5y8NDUihUreGJigsfHxzkQidHRURafoxCXA8XbpcWVgMDpa7Uae57H4oqB53ksriz4vh8RDt/32XEc3/d99jyPHcfxR0dH/UAU2vVDgajVap4oEJ7n+Y1Gw2s0Gh4AL0g3Gg3P9/2m7/tNMU+sI9oIBCT4XVhYYMdx/IWFBfZ9n0dHR/12uywLWXC8wa94zEDr7lLdKopqVQWIiodu+VV8RF9MA4i8+yNh6XVZYlm/7i9YNtu8eTN27dqF9evX0/T0NK9btw7T09NYvXo19u/fTzMzMzw5OYnp6Wlat24dz8zMYHx8nBYWFjh47mNubg4jIyPUXuLDwsICarUatYUDANBoNMLfZrOJZrMJILxUCLcdx+H25YDMlx3HofYdphgbG+NGo0Ft8aD5+XlqB0xsuVVMB5cvi4uLYZqZY/dtiJDvzRCXW+fm5uC6Lge/juOEo4B6vQ5xFNJoNNhxHFQqFW40Gmg0GizuS0TseV4oBMzMnueh2Wxys9mMCEaz2eRGowHHcSK3nacRjGCUIT7wlrTk2h6Rsug7Xbjf0GJZiwa31/KShAMA9u/fj8nJSRw8eDB84Kq9ksLz8/MYHx+PPNRVr9cxOjrKwUSc4zjcnqQLRaPRaKBWq7HjOCQEMLfT7HleOFFYq9V4cXGRPM/j4B6NdnCS4zjkeR6L92wEk4qO44R5AOC6rigWFIgB0Jl3EPNEBPdaiF0obDMzo9FooFqtcnt5lJvNJlzX5ZGRkcgNXsElTdsmExEqlQovLi4G92+EotO+LEGz2WTHcbgtqhBFIxCLRqMhigWIKHaPRqVS4fn5eTiOk/oejampKd69e7d9rB725q4QurtCAYQrKqq7QoH4E6xpb/QS06qbvQBE8lQ3fAGdB9KClRagcxPX6OgogM6DauJIQ5ycDEZDYt0A4sNowXxDm0ds1BHUDwRCvIFLvgsUQOTSQrwEEct0d4K2ecdGFoFIiGIxMTHBCwsLscfpVWLR/tvHLkmWu1gEWNYjDRHtUUdwuULi27yDUQcAbosHAHClUqH2Eh3PzMzQ/Pw8VqxYwUQUPP7ORET1ep2CS4uFhQVaXFzkQECCJcn2HZB04MABmpiYYN/3ETybsbCwgPaDaoE4hDdGVSoVYuZwKdL3/eAXlUqF5ufnw9vI28dJ9XodIyMjcF03FIggyFWQL5MAxCYtg2Cq1+uR27+DSczFxUWMjIzEbhVnZg5s1Go1bs+HRJ5+PXDgQLAvO46DYLTRPn4+ePAgRkdHmYjC0UW9Xsfq1avDkcXCwkJMLADwzMyM8tbx6enpUCyuvfbaZX0HqAw70lBAfodGmpEHgNgNYIB69CH+yiMQoPPeDHEUAkRHHUD8sXixTH4cPli+TFrelesFE7Xyqo4MsZ7qMXnVI/KBKIhpoPW+jaIfjxeEAmlHFsv9dnEdrGgkQLxsSfOmrrwv4FGJCKAWkmBbJyaA+cU7wf0Ned/aFUB8wY4qH4i/kEclDkBHEOTtNs+YSMhv9NK9iEclFKoH0ux7NNLDikZKBLcMZxEQQP9yHgDGF/SI6WAy1SQmYp6YL77iT35Rj5yXBSrBEMVC9eo/UQhU4iC+qat9DOJcSjiSANQioZrUBOwr/4qGFY2c0L3ZC0gWESA6EinihcKqlwmrXiSsuzM1yA9eIyhjdnY2aFfrMHKZfKOV/C5QoDNiEHhExEF+J6j4gmHVSAKIi8Qdd9yBww8/PHLpAdhVkLywolEQkkQEQOS5lryfLhAFBYh+ukD12QLxxcTBtu4YJicnjccYBLwKYuDLQqDKF986Ln43RScObX5KgQA6r+0D7GcMeg0rGj2COJkKmIUESP+RJPHLaKoPJInPUsgCI0L+TkpeiMEvQv6Akvxtk6AOEP1SWzcfTRK/wGYvN3oHKxp9hDgvAuT7HKPqISrxqUwg+hU20+cXu/3Kmnz7tcAn9rlG8VONqud5AlEQvwWb9vOMdgTRX1jRKAlkQQH0ogJEP/osf/BZfLQ/QL+e2FR9IFp8ABCIfhDa9DFo+yHocsKKxhAhEBbxsgfoiAvQeaFQmvc+7NmzhzZs2JCLizi5mATxi/BA9KvwwWUEYAVhWGBFYxlA94Yp8W8vipAJ4tOduhdX2eBf2vj/AdH4FD9SXHAPAAAAAElFTkSuQmCC;" parent="1" vertex="1">
          <mxGeometry x="299.11000000000007" y="641.17" width="112.77" height="136.67" as="geometry" />
        </mxCell>
        <mxCell id="UTTsqRXFpR4VPd-PbOTj-41" value="" style="shape=image;verticalLabelPosition=bottom;labelBackgroundColor=default;verticalAlign=top;aspect=fixed;imageAspect=0;image=data:image/svg+xml,PHN2ZyB4bWw6c3BhY2U9InByZXNlcnZlIiBpZD0ic3ZnMjk4NSIgaGVpZ2h0PSIxODAuNjAzNDkiIHdpZHRoPSIzODEuODUxNSIgdmVyc2lvbj0iMS4xIiB4bWxuczp4bGluaz0iaHR0cDovL3d3dy53My5vcmcvMTk5OS94bGluayIgeG1sbnM9Imh0dHA6Ly93d3cudzMub3JnLzIwMDAvc3ZnIiB2aWV3Qm94PSIwIDAgMzgxLjg1MTUgMTgwLjYwMzQ5Ij48dGl0bGUgaWQ9InRpdGxlMjk5OCI+U1FMaXRlPC90aXRsZT48bWV0YWRhdGEgaWQ9Im1ldGFkYXRhMjk5MSI+aW1hZ2Uvc3ZnK3htbFNRTGl0ZTwvbWV0YWRhdGE+PGRlZnMgaWQ9ImRlZnMyOTg5Ij48bGluZWFyR3JhZGllbnQgc3ByZWFkTWV0aG9kPSJwYWQiIGdyYWRpZW50VHJhbnNmb3JtPSJtYXRyaXgoLTQuMDJlLTYsLTkxLjg5MDcsLTkxLjg5MDcsNC4wMmUtNiw4NS44ODA5LDE2MS40MzQpIiBncmFkaWVudFVuaXRzPSJ1c2VyU3BhY2VPblVzZSIgaWQ9ImxpbmVhckdyYWRpZW50MzAyNyIgeTI9IjAiIHgyPSIxIiB5MT0iMCIgeDE9IjAiPjxzdG9wIG9mZnNldD0iMCIgc3R5bGU9InN0b3AtY29sb3I6Izk3ZDlmNjtzdG9wLW9wYWNpdHk6MSIgaWQ9InN0b3AzMDI5Ii8+PHN0b3Agb2Zmc2V0PSIwLjkyMDI0NDk5IiBzdHlsZT0ic3RvcC1jb2xvcjojMGY4MGNjO3N0b3Atb3BhY2l0eToxIiBpZD0ic3RvcDMwMzEiLz48c3RvcCBvZmZzZXQ9IjEiIHN0eWxlPSJzdG9wLWNvbG9yOiMwZjgwY2M7c3RvcC1vcGFjaXR5OjEiIGlkPSJzdG9wMzAzMyIvPjwvbGluZWFyR3JhZGllbnQ+PGxpbmVhckdyYWRpZW50IHNwcmVhZE1ldGhvZD0icGFkIiBncmFkaWVudFRyYW5zZm9ybT0ibWF0cml4KC00LjAyZS03LC05LjE4OTA3LC05LjE4OTA3LDQuMDJlLTcsOC41ODgwOSwxNi4xNDM0KSIgZ3JhZGllbnRVbml0cz0idXNlclNwYWNlT25Vc2UiIHhsaW5rOmhyZWY9IiNsaW5lYXJHcmFkaWVudDMwMjciIGlkPSJsaW5lYXJHcmFkaWVudDU0MjEiIHkyPSItOS4xMDgyOTgzIiB4Mj0iLTYuNzQxMDA3MyIgeTE9Ii05LjEwODI5ODMiIHgxPSItMTUuNjE0Njk0Ii8+PGxpbmVhckdyYWRpZW50IHNwcmVhZE1ldGhvZD0icGFkIiBncmFkaWVudFRyYW5zZm9ybT0ibWF0cml4KC01LjAyNWUtNywxMS40ODYzMzcsLTExLjQ4NjMzNywtNS4wMjVlLTcsLTMwLjgzOTYzOCwyMDIuMTg2OTgpIiBncmFkaWVudFVuaXRzPSJ1c2VyU3BhY2VPblVzZSIgeGxpbms6aHJlZj0iI2xpbmVhckdyYWRpZW50MzAyNyIgaWQ9ImxpbmVhckdyYWRpZW50Mjk5NSIgeTI9Ii05LjEwODI5ODMiIHgyPSItNi43NDEwMDczIiB5MT0iLTkuMTA4Mjk4MyIgeDE9Ii0xNS42MTQ2OTQiLz48L2RlZnM+PHBhdGggc3R5bGU9ImZpbGw6IzAwM2I1NztmaWxsLW9wYWNpdHk6MTtmaWxsLXJ1bGU6bm9uemVybztzdHJva2U6bm9uZSIgaWQ9IlNRTGl0ZSIgZD0ibSAxNDcuNTMxMjUsODkuMjE4NzU1IGMgLTQuODIyNSwwIC04Ljc0Mzc1LDEuNDI3NSAtMTEuNzUsNC4yODEyNSAtMy4wMDYyNSwyLjg1NjI1IC00LjUzMTI1LDYuNjAwMTM1IC00LjUzMTI1LDExLjE4NzUwNSAwLDIuMzc3MzggMC4zNzg3NSw0LjU0NSAxLjEyNSw2LjUzMTI1IDAuNzQ2MjUsMS45OTAyNSAxLjkwNzUsMy44MzQgMy40Njg3NSw1LjUgMS41NjEyNSwxLjY2NzUgNC42ODYyNSwzLjkzMjYzIDkuMzQzNzUsNi44MTI1IDUuNzE1LDMuNDg4ODcgOS40NTUsNi4zMjAzNyAxMS4yNSw4LjUzMTI0IDEuNzk2MjUsMi4yMDkgMi42ODc1LDQuNTI0IDIuNjg3NSw2LjkzNzUgMCwzLjIzMTUgLTEuMDYzNzUsNS44MTEgLTMuMjUsNy43NSAtMi4xOSwxLjkzOTg4IC01LjExODc1LDIuOTA2MjUgLTguNzUsMi45MDYyNSAtMy44MywwIC03LjE2NjI1LC0xLjM1MDEyIC0xMC4wMzEyNSwtNC4wMzEyNSAtMi44NjUsLTIuNjg1IC00LjMxMTI1LC02LjIzNjM3IC00LjM0Mzc1LC0xMC42ODc1IGwgLTEuNzgxMjUsMCAwLDE2LjE1NjI1IDEuNzgxMjUsMCBjIDAuNTQzNzUsLTEuNTI5ODggMS4yOTYyNSwtMi4zMTI1IDIuMjgxMjUsLTIuMzEyNSAwLjQ3Mzc1LDAgMS41ODM3NSwwLjMyNjc1IDMuMzEyNSwwLjkzNzUgNC4yMDYyNSwxLjQ5NjYyIDcuNjYsMi4yMTg3NSAxMC4zNzUsMi4yMTg3NSA0LjY3ODc1LDAgOC42NzI1LC0xLjYzODYyIDEyLC00Ljk2ODc1IDMuMzIyNSwtMy4zMjg2MiA1LC03LjM0Mzc1IDUsLTEyLjAzMTI1IDAsLTMuNjM0NzUgLTEuMTA3NSwtNi44Njg2MyAtMy4yODEyNSwtOS42ODc0OSAtMi4xNzM3NSwtMi44MjIyNSAtNi40MDEyNSwtNi4xMDUwMSAtMTIuNzE4NzUsLTkuODc1IC01LjQzNjI1LC0zLjI2NjE0IC04Ljk2NSwtNS45MjYyNSAtMTAuNTkzNzUsLTggLTEuNjMxMjUsLTIuMDcwNzYgLTIuNDY4NzUsLTQuMzYxMzcgLTIuNDY4NzUsLTYuODc1IDAsLTIuNzE4NzU1IDAuOTk4NzUsLTQuOTAyNTA1IDIuOTY4NzUsLTYuNTMxMjU1IDEuOTcsLTEuNjMgNC41NTEyNSwtMi40Mzc1IDcuNzgxMjUsLTIuNDM3NSAzLjYzNSwwIDYuNjY1LDEuMDc4NzUgOS4wNjI1LDMuMjUgMi4zOTUsMi4xNzUgMy43OCw1LjE4OSA0LjE4NzUsOS4wNjI1MDUgbCAxLjc4MTI1LDAgMCwtMTQuMDAwMDA1IC0xLjY1NjI1LDAgYyAtMC4yMDI1LDAuNzEzNzUgLTAuMzksMS4xNyAtMC41NjI1LDEuMzc1IC0wLjE2NzUsMC4yMDM3NSAtMC40OSwwLjMxMjUgLTAuOTY4NzUsMC4zMTI1IC0wLjU3NjI1LDAgLTEuNjAzNzUsLTAuMjQyNSAtMy4wNjI1LC0wLjcxODc1IC0zLjEyNSwtMS4wNTI1IC02LjAwNjI1LC0xLjU5Mzc1IC04LjY1NjI1LC0xLjU5Mzc1IHogbSA1OC4yMTg3NSwwIGMgLTUuODc2MjUsMCAtMTEuMjExMjUsMS4zODUgLTE2LjAzMTI1LDQuMTU2MjUgLTQuODI3NSwyLjc2NjI1IC04LjY0ODc1LDYuNjA3NSAtMTEuNDY4NzUsMTEuNTAwMDA1IC0yLjgxODc1LDQuODkyMTIgLTQuMjE4NzUsMTAuMDg3ODYgLTQuMjE4NzUsMTUuNjI1IDAsNy40Mzg5OSAyLjQzNSwxNC4wNjYzNiA3LjM0Mzc1LDE5Ljg3NDk5IDQuOTExMjUsNS44MDUxMyAxMC43OTYyNSw5LjQyMjM4IDE3LjYyNSwxMC44MTI1IDEuNTYxMjUsMC44MTM1IDMuNzk1LDIuOTEzNSA2LjcxODc1LDYuMzEyNSAzLjI5NSwzLjgzNTg3IDYuMDgyNSw2LjYwMjUgOC4zNzUsOC4yNSAyLjI5LDEuNjQ4MzcgNC43NjI1LDIuODU2NSA3LjM3NSwzLjY1NjI1IDIuNjE1LDAuNzk2MzggNS40NDI1LDEuMTg3NSA4LjUsMS4xODc1IDMuNzAyNSwwIDcuMDE3NSwtMC42NDM1IDkuOTM3NSwtMS45Njg3NSBMIDIzOS4yNSwxNjcgYyAtMS42OTUsMC42MTEzOCAtMy41MDI1LDAuOTA2MjUgLTUuNDA2MjUsMC45MDYyNSAtMi41ODM3NSwwIC01LjE5NSwtMC44NTIgLTcuODEyNSwtMi41NjI1IC0yLjYxMzc1LC0xLjcxNDc1IC01Ljg4MjUsLTQuOTg2MzcgLTkuNzgxMjUsLTkuODEyNSAtMS44MzI1LC0yLjMxMjUgLTMuMDk3NSwtMy43NzE1IC0zLjgxMjUsLTQuMzQzNzUgNy40NzEyNSwtMS40NTkgMTMuNjE1LC01LjA4IDE4LjQwNjI1LC0xMC44NzUgNC43OSwtNS43OTI1IDcuMTg3NSwtMTIuNDAzMzYgNy4xODc1LC0xOS44MTI0OSAwLC04Ljc5NzM5IC0zLjEzLC0xNi4xOTA4OCAtOS4zNDM3NSwtMjIuMjE4NzU1IC02LjIxODc1LC02LjAyODUgLTEzLjg2NjI1LC05LjA2MjUgLTIyLjkzNzUsLTkuMDYyNSB6IG0gMzYuMzQzNzUsMCAwLjA5MzcsMS45MDYyNSBjIDMuOTEyNSwwIDYuMTAzNzUsMS4xNTI1IDYuNTkzNzUsMy40Njg3NSAwLjE4MjUsMC44Mjg3NSAwLjI2NjI1LDIuMzU5IDAuMjgxMjUsNC41NjI1IGwgLTAuMDMxMiw0Mi4xNTYyNDUgYyAtMC4wMzI1LDMuMTQ4NSAtMC40ODEyNSw1LjE1ODc1IC0xLjM0Mzc1LDYuMDMxMjUgLTAuODYzNzUsMC44NjYyNSAtMi4zMjM3NSwxLjQwODc1IC00LjQzNzUsMS42MjUgbCAtMC4wOTM3LDEuOTA2MjUgMzksMCAxLC05LjU2MjUgLTEuNzgxMjUsMCBjIC0wLjUwODc1LDIuNjA1IC0xLjY3NSw0LjQ3MTEzIC0zLjUzMTI1LDUuNTMxMjUgLTEuODYxMjUsMS4wNjc4NyAtNS4xNTI1LDEuNTkzNzUgLTkuOTA2MjUsMS41OTM3NSBsIC0zLjY4NzUsMCBjIC00LjI3NzUsMCAtNi43NTI1LC0xLjU0NjM4IC03LjQwNjI1LC00LjY1NjI1IC0wLjEzNSwtMC42MTUyNSAtMC4xODEyNSwtMS4yNzQ4OCAtMC4xODc1LC0yIGwgMC4xNTYyNSwtNDIuNjI0OTk1IGMgLTEwZS00LC0zLjE0MzUgMC4zOTYyNSwtNS4yNSAxLjIxODc1LC02LjI4MTI1IDAuODMxMjUsLTEuMDI3NSAyLjMzLC0xLjYwMjUgNC41LC0xLjc1IGwgLTAuMDkzNywtMS45MDYyNSAtMjAuMzQzNzUsMCB6IG0gLTM1LjcxODc1LDIuMzEyNSBjIDYuNjI3NSwwIDEyLjAzODc1LDIuNjEwMjUgMTYuMjE4NzUsNy44NzUgNC4xNzg3NSw1LjI2NjYzNSA2LjI1LDEyLjQ4NDg3NSA2LjI1LDIxLjYyNTAwNSAwLDguNjYxMTEgLTIuMTAxMjUsMTUuNTk2MTIgLTYuMzEyNSwyMC44MTI0OSAtNC4yMTEyNSw1LjIxNDc1IC05LjgxNjI1LDcuODEyNSAtMTYuNzgxMjUsNy44MTI1IC02LjY5MTI1LDAgLTEyLjExNzUsLTIuNjc4NzUgLTE2LjI4MTI1LC04LjA2MjUgLTQuMTYsLTUuMzgzNzUgLTYuMjE4NzUsLTEyLjM3MzUgLTYuMjE4NzUsLTIwLjk2ODc0IDAsLTguODMyNSAyLjA4Mzc1LC0xNS45MDI4OCA2LjI4MTI1LC0yMS4xODc1MDUgNC4xOTUsLTUuMjc5IDkuODEyNSwtNy45MDYyNSAxNi44NDM3NSwtNy45MDYyNSB6IG0gODkuNjg3NSw5LjA2MjUwNSBjIC0wLjk1MTI1LDAgLTEuNjc2MjUsMC4zMjEyNSAtMi4yMTg3NSwwLjk2ODc1IC0wLjU1NSwwLjY0NDk5IC0wLjcyNSwxLjQyNjI0IC0wLjUzMTI1LDIuMzc1IDAuMTg3NSwwLjkyMDM3IDAuNzA2MjUsMS43MjcgMS41MzEyNSwyLjQwNjI1IDAuODIsMC42Nzg2MSAxLjcwNSwxLjAzMTI1IDIuNjU2MjUsMS4wMzEyNSAwLjkyLDAgMS42MjEyNSwtMC4zNTI2MiAyLjEyNSwtMS4wMzEyNSAwLjUwMzc1LC0wLjY3OTI1IDAuNjU3NSwtMS40ODU4OCAwLjQ2ODc1LC0yLjQwNjI1IC0wLjE5Mzc1LC0wLjk0ODc2IC0wLjY5NSwtMS43MzAwMSAtMS40Njg3NSwtMi4zNzUgLTAuNzgyNSwtMC42NDc1IC0xLjY0MjUsLTAuOTY4NzUgLTIuNTYyNSwtMC45Njg3NSB6IG0gMjUuNzE4NzUsNi40Njg3NSBjIC0xLjYxNjI1LDYuMjE3NzQgLTUuMTIsOS41ODI0OSAtMTAuNSwxMC4xMjUgbCAwLjA2MjUsMS43ODEyNSA2LjI4MTI1LDAgLTAuMTI1LDIxLjA2MjQ5IGMgMC4wMSwzLjYwMSAwLjEyLDUuOTk4NSAwLjM3NSw3LjIxODc1IDAuNjE4NzUsMi45MjEzOCAyLjUyNjI1LDQuNDA2MjUgNS43MTg3NSw0LjQwNjI1IDQuNjE4NzUsMCA5LjQ2Mzc1LC0yLjgxMzUgMTQuNTMxMjUsLTguNDM3NSBsIC0xLjUzMTI1LC0xLjMxMjUgYyAtMy42NTg3NSwzLjcwMzYzIC02Ljg5Mzc1LDUuNTYyNSAtOS43MTg3NSw1LjU2MjUgLTEuNzM2MjUsMCAtMi44MTI1LC0wLjk5ODUgLTMuMjE4NzUsLTIuOTY4NzUgQyAzMjMuNTQ1LDE0NC4wMjE1IDMyMy41LDE0My40NjIzOCAzMjMuNSwxNDIuODEyNSBsIDAuMDYyNSwtMjMuODQzNzQgOS41OTM3NSwwIC0wLjA5MzcsLTIuODQzNzUgLTkuNDY4NzUsMCAwLC05LjA2MjUgLTEuODEyNSwwIHogbSAzNy4wOTM3NSw3LjkzNzUgYyAtNS4zNjYyNSwwIC05LjczMTI1LDIuNjA1IC0xMy4xMjUsNy43ODEyNSAtMy4zNzYyNSw1LjE4NSAtNC40MjEyNSwxMC45Mjk2MSAtMy4wOTM3NSwxNy4yNDk5OSAwLjc4MTI1LDMuNzAyMTIgMi4zMzc1LDYuNTcxMzggNC43MTg3NSw4LjU5Mzc1IDIuMzc3NSwyLjAyMTUgNS4zOTM3NSwzLjAzMTI1IDksMy4wMzEyNSAzLjM1NzUsMCA4LjAzMjUsLTAuODUwMTIgMTAsLTIuNTYyNSAxLjk3MjUsLTEuNzExMzggMy43OSwtNC40ODM4OCA1LjQ2ODc1LC04LjI4MTI1IEwgMzcwLjUsMTM5LjQwNjI1IGMgLTIuNjc3NSw0LjkyNjI1IC04LjA4MTI1LDcuNDA2MjUgLTEyLjE1NjI1LDcuNDA2MjUgLTUuNjAyNSwwIC05LjAzMzc1LC0zLjA3Mzc1IC0xMC4zMTI1LC05LjE4NzUgLTAuMTY2MjUsLTAuNzgwMzggLTAuMjksLTEuNjE4NzUgLTAuMzc1LC0yLjUgNi42NjUsLTEuMDU1MjUgMTEuNzE2MjUsLTIuOTIzODggMTUuMTI1LC01LjYyNSAzLjQwNjI1LC0yLjcwMjYxIDYuODI2MjUsLTUuNTY3MzcgNi4xODc1LC04LjU5Mzc0IC0wLjM4LC0xLjc5ODM4IC0xLjMxMzc1LC0zLjIxMjM4IC0yLjc1LC00LjI4MTI1IC0xLjQ1NSwtMS4wNjgzNyAtNS4yMzI1LC0xLjYyNSAtNy4zNDM3NSwtMS42MjUgeiBtIC01OC42NTYyNSwwLjIxODc1IC0xMS41NjI1LDIuNjU2MjUgMCwyLjA2MjUgNCwtMC41IGMgMS45Mzc1LDAgMy4wNzc1LDAuODc3MzggMy40Mzc1LDIuNjI1IDAuMTIxMjUsMC41ODQ4OCAwLjE5NzUsMS40MDYyNSAwLjIxODc1LDIuNDM3NSBsIC0wLjEyNSwxOC45MDYyNCBjIC0wLjAzMjUsMi42MTYyNSAtMC4zMjI1LDQuMTM3MTIgLTAuOTA2MjUsNC41OTM3NSAtMC41ODg3NSwwLjQ1NzUgLTIuMTQxMjUsMC42ODc1IC00LjY1NjI1LDAuNjg3NSBsIC0wLjA2MjUsMS43ODEyNSAxOC4zNDM3NSwwIC0wLjAzMTIsLTEuNzgxMjUgYyAtMi41NDg3NSwwIC00LjIwMTI1LC0wLjIwMTEyIC00LjkzNzUsLTAuNTkzNzUgLTAuNzIzNzUsLTAuMzkwMTIgLTEuMjIyNSwtMS4xMDAxMiAtMS40Mzc1LC0yLjE4NzUgLTAuMTY2MjUsLTAuNzgzNjMgLTAuMjM4NzUsLTIuMTMzODcgLTAuMjUsLTQgbCAwLjA2MjUsLTI2LjY4NzQ5IC0yLjA5Mzc1LDAgeiBtIDU1LjcxODc1LDMuNSBjIDEuMTE2MjUsMCAyLjE5NSwwLjQzMTEyIDMuMjgxMjUsMS4yODEyNSAxLjA3MTI1LDAuODQ3MTMgMS43MjM3NSwxLjc4OTEyIDEuOTM3NSwyLjgxMjUgMS4wNDYyNSw1LjAyNjM4IC0zLjQxLDguNTAxMzYgLTEzLjQzNzUsMTAuNDM3NDkgLTAuMjg2MjUsLTMuNjY1MTIgMC4zNDg3NSwtNi45OTIyNCAxLjk2ODc1LC05Ljk5OTk5IDEuNjA3NSwtMy4wMDQ4OCAzLjcwMTI1LC00LjUzMTI1IDYuMjUsLTQuNTMxMjUgeiIvPjxwYXRoIHN0eWxlPSJmaWxsOiMwZjgwY2M7ZmlsbC1vcGFjaXR5OjE7ZmlsbC1ydWxlOm5vbnplcm87c3Ryb2tlOm5vbmUiIGlkPSJzb2xpZC1iYWNrZ3JvdW5kIiBkPSJtIDEyMS42MzE1LDE3LjAzNjIzIC05OS41MDYsMCBDIDE1LjQ1NjUsMTcuMDM2MjMgMTAsMjIuNDkzNzMgMTAsMjkuMTYyNDggbCAwLDEwOS43MzY1IGMgMCw2LjY2ODM3IDUuNDU2NSwxMi4xMjUgMTIuMTI1NSwxMi4xMjUgbCA2NS41MzcyNSwwIEMgODYuOTE4ODg0LDExOC40MTQ3NyA5OC4wNTQ0OTksNTUuMTMwNDAyIDEyMS42MzE1LDE3LjAzNjIzIHoiLz48cGF0aCBzdHlsZT0iZmlsbDp1cmwoI2xpbmVhckdyYWRpZW50Mjk5NSk7ZmlsbC1vcGFjaXR5OjE7ZmlsbC1ydWxlOm5vbnplcm87c3Ryb2tlOm5vbmUiIGlkPSJncmFkaWVudC1iYWNrZ3JvdW5kIiBkPSJtIDExOC4wMTY1LDIwLjU3MzczIC05NS44OTEsMCBjIC00LjczNTM3NSwwIC04LjU4ODg3NSwzLjg1MjUgLTguNTg4ODc1LDguNTg4NzUgbCAwLDEwMS43MzAxMyBjIDIxLjcxNzI1LC04LjMzNSA1NC4zMTIyMSwtMTUuNTI2OSA3Ni44NDk1ODUsLTE1LjIwMDI3IDQuNTI4OTMsLTIzLjY4MDkwMSAxNy44Mzk0MSwtNzAuMDkwNDI0IDI3LjYzMDI5LC05NS4xMTg2MSB6Ii8+PHBhdGggc3R5bGU9ImZpbGw6IzAwM2I1NztmaWxsLW9wYWNpdHk6MTtmaWxsLXJ1bGU6bm9uemVybztzdHJva2U6bm9uZSIgaWQ9ImZlYXRoZXIiIGQ9Im0gMTQ0Ljg0MTUsMTMuNDQ0OTggYyAtNi44MTUsLTYuMDc3NSAtMTUuMDY2MjUsLTMuNjM2MjUgLTIzLjIxLDMuNTkxMjUgLTEuMjA4NzUsMS4wNzM3NSAtMi40MTUsMi4yNjUgLTMuNjE1LDMuNTM3NSAtMTMuOTMxMjUsMTQuNzc4NzUgLTI2Ljg2MjUsNDIuMTUzNzUgLTMwLjg4LDYzLjA2IDEuNTY1LDMuMTczNzUgMi43ODc1LDcuMjIzNzUgMy41OTI1LDEwLjMxNzUgMC4yMDYyNSwwLjc5Mzc1IDAuMzkyNSwxLjUzODc1IDAuNTQxMjUsMi4xNzI1IDAuMzUzNzUsMS40OTk4NzUgMC41NDM3NSwyLjQ3MjUgMC41NDM3NSwyLjQ3MjUgMCwwIC0wLjEyNSwtMC40NzI2MjUgLTAuNjM3NSwtMS45NTg3NSAtMC4wOTc1LC0wLjI4NSAtMC4yMDYyNSwtMC41OTYyNSAtMC4zMzUsLTAuOTYyNSAtMC4wNTUsLTAuMTUxMjUgLTAuMTMxMjUsLTAuMzM1IC0wLjIxNSwtMC41MzEyNSAtMC45MDg3NSwtMi4xMTI1IC0zLjQyMjUsLTYuNTcxMjUgLTQuNTI4NzUsLTguNTEyNSAtMC45NDYyNSwyLjc5MTI1IC0xLjc4MjUsNS40MDI1IC0yLjQ4MjUsNy43NjUgMy4xOTM3NSw1Ljg0MzUgNS4xNCwxNS44NTc3NSA1LjE0LDE1Ljg1Nzc1IDAsMCAtMC4xNjg3NSwtMC42NDkgLTAuOTcxMjUsLTIuOTE0MTIgLTAuNzEyNSwtMi4wMDMzOCAtNC4yNjEyNSwtOC4yMjExMyAtNS4xMDE4NzUsLTkuNjc0NzU1IC0xLjQzOCw1LjMwODUwNSAtMi4wMDkzNzUsOC44OTI1MDUgLTEuNDk0MTI1LDkuNzY1MTI1IDEuMDAwMzc1LDEuNjkwODggMS45NTMxMjUsNC42MDgzOCAyLjc4OTc1LDcuODM0ODggMS44OSw3LjI2ODYyIDMuMjAzNzUsMTYuMTE3MjUgMy4yMDM3NSwxNi4xMTcyNSAwLDAgMC4wNDI1LDAuNTg2MzcgMC4xMTM3NSwxLjQ4ODc1IC0wLjI2MjUsNi4xMDQgLTAuMTA1LDEyLjQzMjYyIDAuMzY3NSwxOC4xNTI4NyAwLjYyNjI1LDcuNTcyMjUgMS44MDUsMTQuMDc3MTMgMy4zMDc1LDE3LjU1ODUgbCAxLjAyLC0wLjU1NjEyIGMgLTIuMjA2MjUsLTYuODU4ODggLTMuMTAyNSwtMTUuODQ3NjMgLTIuNzEsLTI2LjIxMzg4IDAuNTkzNzUsLTE1Ljg0NTEyIDQuMjQsLTM0Ljk1MzYyIDEwLjk3NzUsLTU0Ljg3IDExLjM4MjUsLTMwLjA2NSAyNy4xNzUsLTU0LjE4NzUgNDEuNjI4NzUsLTY1LjcwNzUgLTEzLjE3Mzc1LDExLjg5NzUgLTMxLjAwMzc1LDUwLjQwODc1IC0zNi4zNDEyNSw2NC42NyAtNS45NzYyNSwxNS45NyAtMTAuMjExMjUsMzAuOTU2MzggLTEyLjc2Mzc1LDQ1LjMxNDc1IDQuNDAzNzUsLTEzLjQ2MDg3IDE4LjY0MjUsLTE5LjI0NyAxOC42NDI1LC0xOS4yNDcgMCwwIDYuOTgzNzUsLTguNjEyODcgMTUuMTQ1LC0yMC45MTc3NSAtNC44ODg3NSwxLjExNSAtMTIuOTE2MjUsMy4wMjM3NSAtMTUuNjA1LDQuMTUzNzUgLTMuOTY2MjUsMS42NjM3NSAtNS4wMzUsMi4yMzEyNSAtNS4wMzUsMi4yMzEyNSAwLDAgMTIuODQ3NSwtNy44MjM3NSAyMy44NywtMTEuMzY2MjUgMTUuMTU4NzUsLTIzLjg3NSAzMS42NzM3NSwtNTcuNzkyNSAxNS4wNDI1LC03Mi42Mjg3NSIvPjwvc3ZnPg==;" parent="1" vertex="1">
          <mxGeometry x="540.27" y="684.85" width="189.46" height="89.77" as="geometry" />
        </mxCell>
        <mxCell id="UTTsqRXFpR4VPd-PbOTj-42" value="&lt;div style=&quot;font-size: 15px;&quot;&gt;&lt;b&gt;&lt;font style=&quot;font-size: 15px;&quot;&gt;Protocolo &lt;br&gt;&lt;/font&gt;&lt;/b&gt;&lt;/div&gt;&lt;div style=&quot;font-size: 15px;&quot;&gt;&lt;b&gt;&lt;font style=&quot;font-size: 15px;&quot;&gt;HTTPS&lt;/font&gt;&lt;/b&gt;&lt;/div&gt;" style="text;html=1;align=center;verticalAlign=middle;resizable=0;points=[];autosize=1;strokeColor=none;fillColor=none;" parent="1" vertex="1">
          <mxGeometry x="165.94" y="220" width="90" height="50" as="geometry" />
        </mxCell>
        <mxCell id="UTTsqRXFpR4VPd-PbOTj-43" value="DB-API" style="text;html=1;align=center;verticalAlign=middle;resizable=0;points=[];autosize=1;strokeColor=none;fillColor=none;fontSize=15;fontStyle=1" parent="1" vertex="1">
          <mxGeometry x="488.03" y="240" width="70" height="30" as="geometry" />
        </mxCell>
        <mxCell id="UTTsqRXFpR4VPd-PbOTj-44" value="&lt;div style=&quot;font-size: 15px;&quot;&gt;&lt;b&gt;&lt;font style=&quot;font-size: 15px;&quot;&gt;Protocolo &lt;br&gt;&lt;/font&gt;&lt;/b&gt;&lt;/div&gt;&lt;div style=&quot;font-size: 15px;&quot;&gt;&lt;b&gt;&lt;font style=&quot;font-size: 15px;&quot;&gt;HTTPS&lt;/font&gt;&lt;/b&gt;&lt;/div&gt;" style="text;html=1;align=center;verticalAlign=middle;resizable=0;points=[];autosize=1;strokeColor=none;fillColor=none;" parent="1" vertex="1">
          <mxGeometry x="145" y="660.1800000000001" width="90" height="50" as="geometry" />
        </mxCell>
        <mxCell id="UTTsqRXFpR4VPd-PbOTj-45" value="DB-API" style="text;html=1;align=center;verticalAlign=middle;resizable=0;points=[];autosize=1;strokeColor=none;fillColor=none;fontSize=15;fontStyle=1" parent="1" vertex="1">
          <mxGeometry x="460.5" y="680.1800000000001" width="70" height="30" as="geometry" />
        </mxCell>
      </root>
    </mxGraphModel>
  </diagram>
</mxfile>
